<svg width="24" height="25" viewBox="0 0 24 25" fill="none" xmlns="http://www.w3.org/2000/svg">
<path d="M4.8375 19.7931C3.42236 18.3768 2.4589 16.5727 2.06892 14.6088C1.67895 12.645 1.87996 10.6097 2.64655 8.76006C3.41314 6.91046 4.71089 5.32966 6.37575 4.21749C8.04061 3.10532 9.99783 2.51172 12 2.51172C14.0022 2.51172 15.9594 3.10532 17.6243 4.21749C19.2891 5.32966 20.5869 6.91046 21.3535 8.76006C22.12 10.6097 22.3211 12.645 21.9311 14.6088C21.5411 16.5727 20.5776 18.3768 19.1625 19.7931C17.2615 21.6901 14.6856 22.7555 12 22.7555C9.31441 22.7555 6.7385 21.6901 4.8375 19.7931ZM17.5706 18.1994C18.6714 17.0978 19.4208 15.6946 19.7241 14.1672C20.0275 12.6397 19.8712 11.0566 19.275 9.61803C18.6787 8.17942 17.6694 6.94987 16.3745 6.08483C15.0796 5.21978 13.5573 4.75807 12 4.75807C10.4427 4.75807 8.92043 5.21978 7.62552 6.08483C6.33062 6.94987 5.32126 8.17942 4.72504 9.61803C4.12882 11.0566 3.97251 12.6397 4.27587 14.1672C4.57924 15.6946 5.32865 17.0978 6.42938 18.1994C7.90762 19.675 9.91089 20.504 11.9996 20.5044C14.0883 20.5047 16.0919 19.6764 17.5706 18.2013V18.1994ZM9.79407 17.1766L12 14.9744L14.2059 17.1803C14.3106 17.285 14.4348 17.368 14.5716 17.4246C14.7083 17.4812 14.8548 17.5104 15.0028 17.5104C15.1508 17.5104 15.2974 17.4812 15.4341 17.4246C15.5708 17.368 15.695 17.285 15.7997 17.1803C15.9043 17.0757 15.9873 16.9514 16.044 16.8147C16.1006 16.678 16.1298 16.5314 16.1298 16.3834C16.1298 16.2354 16.1006 16.0889 16.044 15.9522C15.9873 15.8154 15.9043 15.6912 15.7997 15.5866L12.7997 12.5866C12.6952 12.4817 12.571 12.3985 12.4342 12.3417C12.2975 12.2849 12.1509 12.2557 12.0028 12.2557C11.8547 12.2557 11.7081 12.2849 11.5714 12.3417C11.4346 12.3985 11.3105 12.4817 11.2059 12.5866L8.20594 15.5866C7.9946 15.7979 7.87586 16.0846 7.87586 16.3834C7.87586 16.6823 7.9946 16.969 8.20594 17.1803C8.41729 17.3917 8.70393 17.5104 9.00282 17.5104C9.3017 17.5104 9.58835 17.3917 9.79969 17.1803L9.79407 17.1766ZM9.79407 11.9266L12 9.72438L14.2059 11.9294C14.3106 12.034 14.4348 12.117 14.5716 12.1737C14.7083 12.2303 14.8548 12.2595 15.0028 12.2595C15.1508 12.2595 15.2974 12.2303 15.4341 12.1737C15.5708 12.117 15.695 12.034 15.7997 11.9294C15.9043 11.8247 15.9873 11.7005 16.044 11.5638C16.1006 11.427 16.1298 11.2805 16.1298 11.1325C16.1298 10.9845 16.1006 10.838 16.044 10.7012C15.9873 10.5645 15.9043 10.4403 15.7997 10.3356L12.7997 7.33563C12.6952 7.23075 12.571 7.14753 12.4342 7.09075C12.2975 7.03397 12.1509 7.00474 12.0028 7.00474C11.8547 7.00474 11.7081 7.03397 11.5714 7.09075C11.4346 7.14753 11.3105 7.23075 11.2059 7.33563L8.20594 10.3356C8.10129 10.4403 8.01828 10.5645 7.96165 10.7012C7.90501 10.838 7.87586 10.9845 7.87586 11.1325C7.87586 11.2805 7.90501 11.427 7.96165 11.5638C8.01828 11.7005 8.10129 11.8247 8.20594 11.9294C8.31059 12.034 8.43482 12.117 8.57155 12.1737C8.70828 12.2303 8.85482 12.2595 9.00282 12.2595C9.15081 12.2595 9.29735 12.2303 9.43408 12.1737C9.57081 12.117 9.69504 12.034 9.79969 11.9294L9.79407 11.9266Z" fill="#3393A1"/>
</svg>
