<svg width="24" height="25" viewBox="0 0 24 25" fill="none" xmlns="http://www.w3.org/2000/svg">
<path d="M4.8375 5.10799C3.42236 6.52434 2.4589 8.32846 2.06892 10.2923C1.67895 12.2561 1.87996 14.2915 2.64655 16.1411C3.41314 17.9907 4.71089 19.5715 6.37575 20.6836C8.04061 21.7958 9.99783 22.3894 12 22.3894C14.0022 22.3894 15.9594 21.7958 17.6243 20.6836C19.2891 19.5715 20.5869 17.9907 21.3535 16.1411C22.12 14.2915 22.3211 12.2561 21.9311 10.2923C21.5411 8.32846 20.5776 6.52434 19.1625 5.10799C17.2615 3.211 14.6856 2.14561 12 2.14561C9.31441 2.14561 6.7385 3.211 4.8375 5.10799ZM17.5706 6.70174C18.6714 7.80333 19.4208 9.20653 19.7241 10.734C20.0275 12.2614 19.8712 13.8445 19.275 15.2831C18.6787 16.7217 17.6694 17.9513 16.3745 18.8163C15.0796 19.6813 13.5573 20.143 12 20.143C10.4427 20.143 8.92043 19.6813 7.62552 18.8163C6.33062 17.9513 5.32126 16.7217 4.72504 15.2831C4.12882 13.8445 3.97251 12.2614 4.27587 10.734C4.57924 9.20653 5.32865 7.80333 6.42938 6.70174C7.90762 5.22608 9.91089 4.39712 11.9996 4.39677C14.0883 4.39642 16.0919 5.2247 17.5706 6.69987V6.70174ZM9.79407 7.72456L12 9.92674L14.2059 7.72081C14.3106 7.61616 14.4348 7.53315 14.5716 7.47651C14.7083 7.41988 14.8548 7.39073 15.0028 7.39073C15.1508 7.39073 15.2974 7.41988 15.4341 7.47651C15.5708 7.53315 15.695 7.61616 15.7997 7.72081C15.9043 7.82545 15.9873 7.94969 16.044 8.08642C16.1006 8.22314 16.1298 8.36969 16.1298 8.51768C16.1298 8.66567 16.1006 8.81222 16.044 8.94895C15.9873 9.08567 15.9043 9.20991 15.7997 9.31456L12.7997 12.3146C12.6952 12.4194 12.571 12.5027 12.4342 12.5594C12.2975 12.6162 12.1509 12.6454 12.0028 12.6454C11.8547 12.6454 11.7081 12.6162 11.5714 12.5594C11.4346 12.5027 11.3105 12.4194 11.2059 12.3146L8.20594 9.31456C7.9946 9.10321 7.87586 8.81657 7.87586 8.51768C7.87586 8.21879 7.9946 7.93215 8.20594 7.72081C8.41729 7.50946 8.70393 7.39073 9.00282 7.39073C9.3017 7.39073 9.58835 7.50946 9.79969 7.72081L9.79407 7.72456ZM9.79407 12.9746L12 15.1767L14.2059 12.9717C14.3106 12.8671 14.4348 12.7841 14.5716 12.7275C14.7083 12.6708 14.8548 12.6417 15.0028 12.6417C15.1508 12.6417 15.2974 12.6708 15.4341 12.7275C15.5708 12.7841 15.695 12.8671 15.7997 12.9717C15.9043 13.0764 15.9873 13.2006 16.044 13.3374C16.1006 13.4741 16.1298 13.6206 16.1298 13.7686C16.1298 13.9166 16.1006 14.0632 16.044 14.1999C15.9873 14.3366 15.9043 14.4608 15.7997 14.5655L12.7997 17.5655C12.6952 17.6704 12.571 17.7536 12.4342 17.8104C12.2975 17.8672 12.1509 17.8964 12.0028 17.8964C11.8547 17.8964 11.7081 17.8672 11.5714 17.8104C11.4346 17.7536 11.3105 17.6704 11.2059 17.5655L8.20594 14.5655C8.10129 14.4608 8.01828 14.3366 7.96165 14.1999C7.90501 14.0632 7.87586 13.9166 7.87586 13.7686C7.87586 13.6206 7.90501 13.4741 7.96165 13.3374C8.01828 13.2006 8.10129 13.0764 8.20594 12.9717C8.31059 12.8671 8.43482 12.7841 8.57155 12.7275C8.70828 12.6708 8.85482 12.6417 9.00282 12.6417C9.15081 12.6417 9.29735 12.6708 9.43408 12.7275C9.57081 12.7841 9.69504 12.8671 9.79969 12.9717L9.79407 12.9746Z" fill="#3393A1"/>
</svg>
