<svg width="24" height="11" viewBox="0 0 24 11" fill="none" xmlns="http://www.w3.org/2000/svg">
<path d="M14.2885 2.3025L5.88853 10.5525C5.67816 10.7592 5.39502 10.875 5.1001 10.875C4.80517 10.875 4.52204 10.7592 4.31166 10.5525L0.711659 7.01719C0.606212 6.91365 0.522191 6.79036 0.464393 6.65435C0.406595 6.51834 0.376152 6.37227 0.374803 6.2245C0.372078 5.92605 0.488022 5.63875 0.697128 5.42578C0.800667 5.32034 0.923962 5.23632 1.05997 5.17852C1.19598 5.12072 1.34205 5.09028 1.48982 5.08893C1.78827 5.0862 2.07557 5.20215 2.28853 5.41125L5.10103 8.17313L12.7126 0.697504C12.9254 0.488397 13.2126 0.372403 13.511 0.375041C13.8093 0.377678 14.0944 0.498729 14.3035 0.711566C14.5126 0.924402 14.6286 1.21159 14.626 1.50995C14.6234 1.80831 14.5023 2.0934 14.2895 2.3025H14.2885ZM23.3026 0.708753C23.199 0.602946 23.0756 0.518629 22.9393 0.460638C22.8031 0.402647 22.6567 0.372124 22.5086 0.370817C22.3606 0.369511 22.2137 0.397447 22.0765 0.453025C21.9392 0.508603 21.8143 0.590728 21.7088 0.694691L14.1001 8.17313L13.3613 7.4475C13.1485 7.2384 12.8613 7.1224 12.563 7.12504C12.2646 7.12768 11.9795 7.24873 11.7704 7.46157C11.5613 7.6744 11.4453 7.96159 11.4479 8.25995C11.4506 8.55831 11.5716 8.8434 11.7845 9.0525L13.3117 10.5525C13.522 10.7592 13.8052 10.875 14.1001 10.875C14.395 10.875 14.6782 10.7592 14.8885 10.5525L23.2885 2.3025C23.3939 2.19896 23.4779 2.07568 23.5356 1.9397C23.5934 1.80371 23.6238 1.65768 23.6251 1.50995C23.6264 1.36221 23.5986 1.21567 23.5432 1.07868C23.4879 0.941698 23.4061 0.816951 23.3026 0.711566V0.708753Z" fill="white"/>
</svg>
