<svg width="25" height="25" viewBox="0 0 40 40" fill="none" xmlns="http://www.w3.org/2000/svg">
<rect width="40" height="40" rx="20" fill="#E5FCFF"/>
<path d="M28.6897 17.3909C28.5439 17.4153 28.4043 17.4683 28.279 17.5467C28.1537 17.6251 28.045 17.7274 27.9592 17.8478C27.8735 17.9682 27.8123 18.1044 27.7792 18.2484C27.7461 18.3925 27.7417 18.5417 27.7663 18.6875C27.8387 19.1212 27.875 19.5602 27.875 20C27.8777 21.767 27.283 23.483 26.1875 24.8693C25.4583 23.9419 24.5289 23.1913 23.4688 22.6737C24.1444 21.9895 24.6026 21.1208 24.7858 20.1768C24.9689 19.2329 24.8688 18.2558 24.498 17.3686C24.1273 16.4814 23.5024 15.7236 22.702 15.1907C21.9017 14.6577 20.9616 14.3733 20 14.3733C19.0384 14.3733 18.0983 14.6577 17.298 15.1907C16.4976 15.7236 15.8727 16.4814 15.502 17.3686C15.1312 18.2558 15.0311 19.2329 15.2142 20.1768C15.3974 21.1208 15.8556 21.9895 16.5312 22.6737C15.4711 23.1913 14.5417 23.9419 13.8125 24.8693C12.8964 23.7085 12.326 22.3131 12.1665 20.843C12.007 19.3729 12.265 17.8876 12.9108 16.5574C13.5567 15.2271 14.5643 14.1058 15.8181 13.3218C17.0719 12.5379 18.5213 12.1231 20 12.125C20.4398 12.1249 20.8787 12.1613 21.3125 12.2337C21.6068 12.2835 21.9087 12.2142 22.152 12.0413C22.3952 11.8684 22.5598 11.606 22.6095 11.3117C22.6593 11.0174 22.5901 10.7155 22.4171 10.4722C22.2442 10.229 21.9818 10.0644 21.6875 10.0147C20.2357 9.7709 18.7483 9.84634 17.3286 10.2357C15.909 10.6251 14.5912 11.3192 13.4669 12.2695C12.3427 13.2198 11.439 14.4037 10.8187 15.7387C10.1984 17.0737 9.87633 18.5279 9.875 20C9.875 22.6853 10.9417 25.2606 12.8405 27.1594C14.7393 29.0582 17.3147 30.125 20 30.125C22.6853 30.125 25.2607 29.0582 27.1595 27.1594C29.0583 25.2606 30.125 22.6853 30.125 20C30.1251 19.4346 30.0784 18.8702 29.9853 18.3125C29.9355 18.0185 29.7711 17.7564 29.5282 17.5836C29.2853 17.4108 28.9837 17.3415 28.6897 17.3909ZM17.375 19.25C17.375 18.7308 17.529 18.2233 17.8174 17.7916C18.1058 17.3599 18.5158 17.0235 18.9955 16.8248C19.4751 16.6261 20.0029 16.5741 20.5121 16.6754C21.0213 16.7767 21.489 17.0267 21.8562 17.3938C22.2233 17.7609 22.4733 18.2287 22.5746 18.7379C22.6758 19.2471 22.6239 19.7749 22.4252 20.2545C22.2265 20.7342 21.8901 21.1441 21.4584 21.4326C21.0267 21.721 20.5192 21.875 20 21.875C19.3038 21.875 18.6361 21.5984 18.1438 21.1061C17.6516 20.6138 17.375 19.9462 17.375 19.25ZM15.4597 26.4284C15.9819 25.7143 16.6653 25.1335 17.4542 24.7331C18.2431 24.3327 19.1153 24.124 20 24.124C20.8847 24.124 21.7569 24.3327 22.5458 24.7331C23.3347 25.1335 24.0181 25.7143 24.5403 26.4284C23.2134 27.3695 21.6268 27.8749 20 27.8749C18.3732 27.8749 16.7866 27.3695 15.4597 26.4284ZM30.5459 12.5459L27.5459 15.5459C27.4414 15.6508 27.3172 15.734 27.1805 15.7908C27.0437 15.8476 26.8971 15.8768 26.7491 15.8768C26.601 15.8768 26.4544 15.8476 26.3176 15.7908C26.1809 15.734 26.0567 15.6508 25.9522 15.5459L24.4522 14.0459C24.2408 13.8346 24.1221 13.5479 24.1221 13.249C24.1221 12.9501 24.2408 12.6635 24.4522 12.4522C24.6635 12.2408 24.9502 12.1221 25.2491 12.1221C25.5479 12.1221 25.8346 12.2408 26.0459 12.4522L26.75 13.1562L28.9541 10.9512C29.1654 10.7399 29.4521 10.6211 29.7509 10.6211C30.0498 10.6211 30.3365 10.7399 30.5478 10.9512C30.7592 11.1626 30.8779 11.4492 30.8779 11.7481C30.8779 12.047 30.7592 12.3336 30.5478 12.545L30.5459 12.5459Z" fill="#3393A1"/>
</svg>