<svg width="24" height="24" viewBox="0 0 24 24" fill="none" xmlns="http://www.w3.org/2000/svg">
<path fill-rule="evenodd" clip-rule="evenodd" d="M3 5.52234C3 4.85337 3.26339 4.21181 3.73223 3.73878C4.20107 3.26575 4.83696 3 5.5 3H18C18.7956 3 19.5587 3.3189 20.1213 3.88653C20.6839 4.45417 21 5.22405 21 6.02681V20.1519C21 20.3314 20.9526 20.5077 20.8626 20.6626C20.7726 20.8174 20.6433 20.9453 20.488 21.0329C20.3327 21.1205 20.157 21.1647 19.9791 21.1609C19.8012 21.1572 19.6275 21.1056 19.476 21.0115L16.75 19.3185L14.024 21.0115C13.8664 21.1093 13.685 21.1611 13.5 21.1611C13.315 21.1611 13.1336 21.1093 12.976 21.0115L10.25 19.3185L7.524 21.0115C7.37245 21.1056 7.19878 21.1572 7.02088 21.1609C6.84299 21.1647 6.66733 21.1205 6.51202 21.0329C6.35672 20.9453 6.22739 20.8174 6.13738 20.6626C6.04737 20.5077 5.99995 20.3314 6 20.1519V14.0983H4C3.73478 14.0983 3.48043 13.992 3.29289 13.8028C3.10536 13.6136 3 13.3569 3 13.0894V5.52234ZM8 18.3459L9.726 17.2744C9.88359 17.1766 10.065 17.1248 10.25 17.1248C10.435 17.1248 10.6164 17.1766 10.774 17.2744L13.5 18.9674L16.226 17.2744C16.3836 17.1766 16.565 17.1248 16.75 17.1248C16.935 17.1248 17.1164 17.1766 17.274 17.2744L19 18.3459V6.02681C19 5.75922 18.8946 5.5026 18.7071 5.31338C18.5196 5.12417 18.2652 5.01787 18 5.01787H7.95C7.98333 5.18132 8 5.34948 8 5.52234V18.3459ZM5.5 5.01787C5.36739 5.01787 5.24021 5.07102 5.14645 5.16563C5.05268 5.26023 5 5.38855 5 5.52234V12.0804H6V5.52234C6 5.38855 5.94732 5.26023 5.85355 5.16563C5.75979 5.07102 5.63261 5.01787 5.5 5.01787ZM10 9.05362C10 8.78603 10.1054 8.5294 10.2929 8.34019C10.4804 8.15098 10.7348 8.04468 11 8.04468H16C16.2652 8.04468 16.5196 8.15098 16.7071 8.34019C16.8946 8.5294 17 8.78603 17 9.05362C17 9.3212 16.8946 9.57783 16.7071 9.76704C16.5196 9.95626 16.2652 10.0626 16 10.0626H11C10.7348 10.0626 10.4804 9.95626 10.2929 9.76704C10.1054 9.57783 10 9.3212 10 9.05362ZM10 13.0894C10 12.8218 10.1054 12.5651 10.2929 12.3759C10.4804 12.1867 10.7348 12.0804 11 12.0804H15C15.2652 12.0804 15.5196 12.1867 15.7071 12.3759C15.8946 12.5651 16 12.8218 16 13.0894C16 13.3569 15.8946 13.6136 15.7071 13.8028C15.5196 13.992 15.2652 14.0983 15 14.0983H11C10.7348 14.0983 10.4804 13.992 10.2929 13.8028C10.1054 13.6136 10 13.3569 10 13.0894Z" fill="white"/>
</svg>
