<svg width="24" height="24" viewBox="0 0 24 24" fill="none" xmlns="http://www.w3.org/2000/svg">
<path d="M15 10.875H19.5C19.9973 10.875 20.4742 10.6775 20.8258 10.3258C21.1775 9.97419 21.375 9.49728 21.375 9V4.5C21.375 4.00272 21.1775 3.52581 20.8258 3.17417C20.4742 2.82254 19.9973 2.625 19.5 2.625H15C14.5027 2.625 14.0258 2.82254 13.6742 3.17417C13.3225 3.52581 13.125 4.00272 13.125 4.5V5.625H12C11.3038 5.625 10.6361 5.90156 10.1438 6.39384C9.65156 6.88613 9.375 7.55381 9.375 8.25V10.875H7.125V10.5C7.125 10.0027 6.92746 9.52581 6.57583 9.17417C6.22419 8.82254 5.74728 8.625 5.25 8.625H2.25C2.00377 8.625 1.75995 8.6735 1.53247 8.76773C1.30498 8.86195 1.09828 9.00006 0.924175 9.17417C0.572544 9.52581 0.375 10.0027 0.375 10.5V13.5C0.375 13.7462 0.423498 13.99 0.517726 14.2175C0.611953 14.445 0.750065 14.6517 0.924175 14.8258C1.09828 14.9999 1.30498 15.138 1.53247 15.2323C1.75995 15.3265 2.00377 15.375 2.25 15.375H5.25C5.49623 15.375 5.74005 15.3265 5.96753 15.2323C6.19502 15.138 6.40172 14.9999 6.57583 14.8258C6.74994 14.6517 6.88805 14.445 6.98227 14.2175C7.0765 13.99 7.125 13.7462 7.125 13.5V13.125H9.375V15.75C9.375 16.4462 9.65156 17.1139 10.1438 17.6062C10.6361 18.0984 11.3038 18.375 12 18.375H13.125V19.5C13.125 19.9973 13.3225 20.4742 13.6742 20.8258C14.0258 21.1775 14.5027 21.375 15 21.375H19.5C19.9973 21.375 20.4742 21.1775 20.8258 20.8258C21.1775 20.4742 21.375 19.9973 21.375 19.5V15C21.375 14.5027 21.1775 14.0258 20.8258 13.6742C20.4742 13.3225 19.9973 13.125 19.5 13.125H15C14.5027 13.125 14.0258 13.3225 13.6742 13.6742C13.3225 14.0258 13.125 14.5027 13.125 15V16.125H12C11.9005 16.125 11.8052 16.0855 11.7348 16.0152C11.6645 15.9448 11.625 15.8495 11.625 15.75V8.25C11.625 8.15054 11.6645 8.05516 11.7348 7.98483C11.8052 7.91451 11.9005 7.875 12 7.875H13.125V9C13.125 9.49728 13.3225 9.97419 13.6742 10.3258C14.0258 10.6775 14.5027 10.875 15 10.875ZM4.875 13.125H2.625V10.875H4.875V13.125ZM15.375 15.375H19.125V19.125H15.375V15.375ZM15.375 4.875H19.125V8.625H15.375V4.875Z" fill="white"/>
</svg>
