<svg width="24" height="25" viewBox="0 0 24 25" fill="none" xmlns="http://www.w3.org/2000/svg">
<path d="M3.44457 8.65993L8.50012 9.3266L8.33346 3.77104M2.00012 2.3266L8.50012 9.3266L2.00012 2.3266ZM3.50012 13.3266H8.33346V17.965M2.00012 19.8266L8.33346 13.3266L2.00012 19.8266ZM18.5001 8.8266H13.5001L13.6668 3.77104M13.5001 8.8266L20.0001 2.3266L13.5001 8.8266ZM18.5001 13.3266H13.5001V17.8266M13.5001 13.3266L20.0001 19.8266L13.5001 13.3266Z" fill="#3393A1"/>
<path d="M3.44457 8.65993L8.50012 9.3266M8.50012 9.3266L8.33346 3.77104M8.50012 9.3266L2.00012 2.3266M3.50012 13.3266H8.33346M8.33346 13.3266V17.965M8.33346 13.3266L2.00012 19.8266M18.5001 8.8266H13.5001M13.5001 8.8266L13.6668 3.77104M13.5001 8.8266L20.0001 2.3266M18.5001 13.3266H13.5001M13.5001 13.3266V17.8266M13.5001 13.3266L20.0001 19.8266" stroke="#3393A1" stroke-width="2" stroke-linecap="round" stroke-linejoin="round"/>
</svg>
