<svg width="40" height="40" viewBox="0 0 40 40" fill="none" xmlns="http://www.w3.org/2000/svg">
<rect x="0.5" y="0.5" width="39" height="39" rx="5.5" fill="#E4FBFF"/>
<rect x="0.5" y="0.5" width="39" height="39" rx="5.5" stroke="#3393A1"/>
<path d="M11.75 16.6252H14.5681C14.8008 17.2831 15.2317 17.8528 15.8016 18.2557C16.3714 18.6586 17.0521 18.8749 17.75 18.8749C18.4479 18.8749 19.1286 18.6586 19.6984 18.2557C20.2683 17.8528 20.6992 17.2831 20.9319 16.6252H28.25C28.5484 16.6252 28.8345 16.5067 29.0455 16.2957C29.2565 16.0847 29.375 15.7986 29.375 15.5002C29.375 15.2018 29.2565 14.9157 29.0455 14.7047C28.8345 14.4937 28.5484 14.3752 28.25 14.3752H20.9319C20.6992 13.7172 20.2683 13.1476 19.6984 12.7447C19.1286 12.3418 18.4479 12.1255 17.75 12.1255C17.0521 12.1255 16.3714 12.3418 15.8016 12.7447C15.2317 13.1476 14.8008 13.7172 14.5681 14.3752H11.75C11.4516 14.3752 11.1655 14.4937 10.9545 14.7047C10.7435 14.9157 10.625 15.2018 10.625 15.5002C10.625 15.7986 10.7435 16.0847 10.9545 16.2957C11.1655 16.5067 11.4516 16.6252 11.75 16.6252ZM17.75 14.3752C17.9725 14.3752 18.19 14.4412 18.375 14.5648C18.56 14.6884 18.7042 14.8641 18.7894 15.0697C18.8745 15.2752 18.8968 15.5014 18.8534 15.7197C18.81 15.9379 18.7028 16.1384 18.5455 16.2957C18.3882 16.453 18.1877 16.5602 17.9695 16.6036C17.7512 16.647 17.525 16.6247 17.3195 16.5396C17.1139 16.4544 16.9382 16.3102 16.8146 16.1252C16.691 15.9402 16.625 15.7227 16.625 15.5002C16.625 15.2018 16.7435 14.9157 16.9545 14.7047C17.1655 14.4937 17.4516 14.3752 17.75 14.3752ZM28.25 23.3752H26.9319C26.6992 22.7172 26.2683 22.1476 25.6984 21.7447C25.1286 21.3418 24.4479 21.1255 23.75 21.1255C23.0521 21.1255 22.3714 21.3418 21.8016 21.7447C21.2317 22.1476 20.8008 22.7172 20.5681 23.3752H11.75C11.4516 23.3752 11.1655 23.4937 10.9545 23.7047C10.7435 23.9157 10.625 24.2018 10.625 24.5002C10.625 24.7986 10.7435 25.0847 10.9545 25.2957C11.1655 25.5067 11.4516 25.6252 11.75 25.6252H20.5681C20.8008 26.2831 21.2317 26.8528 21.8016 27.2557C22.3714 27.6586 23.0521 27.8749 23.75 27.8749C24.4479 27.8749 25.1286 27.6586 25.6984 27.2557C26.2683 26.8528 26.6992 26.2831 26.9319 25.6252H28.25C28.5484 25.6252 28.8345 25.5067 29.0455 25.2957C29.2565 25.0847 29.375 24.7986 29.375 24.5002C29.375 24.2018 29.2565 23.9157 29.0455 23.7047C28.8345 23.4937 28.5484 23.3752 28.25 23.3752ZM23.75 25.6252C23.5275 25.6252 23.31 25.5592 23.125 25.4356C22.94 25.312 22.7958 25.1363 22.7106 24.9307C22.6255 24.7251 22.6032 24.4989 22.6466 24.2807C22.69 24.0625 22.7972 23.862 22.9545 23.7047C23.1118 23.5474 23.3123 23.4402 23.5305 23.3968C23.7488 23.3534 23.975 23.3757 24.1805 23.4608C24.3861 23.546 24.5618 23.6902 24.6854 23.8752C24.809 24.0602 24.875 24.2777 24.875 24.5002C24.875 24.7986 24.7565 25.0847 24.5455 25.2957C24.3345 25.5067 24.0484 25.6252 23.75 25.6252Z" fill="#3393A1"/>
</svg>
