<svg width="16" height="16" viewBox="0 0 16 16" fill="none" xmlns="http://www.w3.org/2000/svg">
<path d="M7.99992 1.33325C4.33325 1.33325 1.33325 4.33325 1.33325 7.99992C1.33325 11.6666 4.33325 14.6666 7.99992 14.6666C11.6666 14.6666 14.6666 11.6666 14.6666 7.99992C14.6666 4.33325 11.6666 1.33325 7.99992 1.33325ZM7.99992 13.3333C5.05992 13.3333 2.66659 10.9399 2.66659 7.99992C2.66659 5.05992 5.05992 2.66659 7.99992 2.66659C10.9399 2.66659 13.3333 5.05992 13.3333 7.99992C13.3333 10.9399 10.9399 13.3333 7.99992 13.3333ZM11.0599 5.05325L6.66658 9.44658L4.93992 7.72658L3.99992 8.66658L6.66658 11.3333L11.9999 5.99992L11.0599 5.05325Z" fill="#158D1A"/>
</svg>
