<svg width="24" height="25" viewBox="0 0 24 25" fill="none" xmlns="http://www.w3.org/2000/svg">
<path d="M13 3.24609H9.8C8.11984 3.24609 7.27976 3.24609 6.63803 3.57307C6.07354 3.86069 5.6146 4.31964 5.32698 4.88412C5 5.52586 5 6.36594 5 8.04609V16.4461C5 18.1263 5 18.9663 5.32698 19.6081C5.6146 20.1726 6.07354 20.6315 6.63803 20.9191C7.27976 21.2461 8.11984 21.2461 9.8 21.2461H11.5M13 3.24609L19 9.24609M13 3.24609V6.04609C13 7.1662 13 7.72625 13.218 8.15407C13.4097 8.5304 13.7157 8.83636 14.092 9.02811C14.5198 9.24609 15.0799 9.24609 16.2 9.24609H19M19 9.24609V12.2461M15.5 18.7461H20.5M18 16.2461V21.2461" stroke="white" stroke-width="2" stroke-linecap="round" stroke-linejoin="round"/>
</svg>
