<svg width="16" height="20" viewBox="0 0 16 20" fill="none" xmlns="http://www.w3.org/2000/svg">
<path d="M5.375 0.625H2C1.50272 0.625 1.02581 0.822544 0.674175 1.17417C0.322544 1.52581 0.125 2.00272 0.125 2.5V17.5C0.125 17.9973 0.322544 18.4742 0.674175 18.8258C1.02581 19.1775 1.50272 19.375 2 19.375H5.375C5.87228 19.375 6.34919 19.1775 6.70083 18.8258C7.05246 18.4742 7.25 17.9973 7.25 17.5V2.5C7.25 2.00272 7.05246 1.52581 6.70083 1.17417C6.34919 0.822544 5.87228 0.625 5.375 0.625ZM5 17.125H2.375V2.875H5V17.125ZM14 0.625H10.625C10.1277 0.625 9.65081 0.822544 9.29918 1.17417C8.94754 1.52581 8.75 2.00272 8.75 2.5V17.5C8.75 17.9973 8.94754 18.4742 9.29918 18.8258C9.65081 19.1775 10.1277 19.375 10.625 19.375H14C14.4973 19.375 14.9742 19.1775 15.3258 18.8258C15.6775 18.4742 15.875 17.9973 15.875 17.5V2.5C15.875 2.00272 15.6775 1.52581 15.3258 1.17417C14.9742 0.822544 14.4973 0.625 14 0.625ZM13.625 17.125H11V2.875H13.625V17.125Z" fill="#4E4B66"/>
</svg>
