<svg width="40" height="40" viewBox="0 0 40 40" fill="none" xmlns="http://www.w3.org/2000/svg">
<rect width="40" height="40" rx="6" fill="url(#paint0_linear_7188_20777)"/>
<path d="M25.9995 14L25.1987 26.0129C25.1285 27.065 25.0934 27.5911 24.8662 27.99C24.6661 28.3412 24.3643 28.6235 24.0006 28.7998C23.5875 29 23.0602 29 22.0057 29H17.9933C16.9388 29 16.4115 29 15.9984 28.7998C15.6347 28.6235 15.3329 28.3412 15.1328 27.99C14.9056 27.5911 14.8705 27.065 14.8004 26.0129L13.9995 14M11.9995 14H27.9995M23.9995 14L23.7289 13.1881C23.4666 12.4013 23.3355 12.0078 23.0922 11.717C22.8774 11.4601 22.6016 11.2613 22.29 11.1388C21.9372 11 21.5225 11 20.6931 11H19.3059C18.4766 11 18.0619 11 17.709 11.1388C17.3974 11.2613 17.1216 11.4601 16.9068 11.717C16.6636 12.0078 16.5324 12.4013 16.2702 13.1881L15.9995 14M21.9995 18V25M17.9995 18V25" stroke="white" stroke-width="2" stroke-linecap="round" stroke-linejoin="round"/>
<defs>
<linearGradient id="paint0_linear_7188_20777" x1="-5.1937e-10" y1="20.0579" x2="40" y2="19.9421" gradientUnits="userSpaceOnUse">
<stop stop-color="#54BEBD"/>
<stop offset="1" stop-color="#0382A5"/>
</linearGradient>
</defs>
</svg>
