<svg width="12" height="18" viewBox="0 0 17 18" fill="none" xmlns="http://www.w3.org/2000/svg">
<path d="M13.4997 4L12.8323 14.0107C12.7738 14.8875 12.7446 15.3259 12.5552 15.6583C12.3885 15.951 12.137 16.1863 11.8339 16.3332C11.4897 16.5 11.0503 16.5 10.1715 16.5H6.82782C5.94907 16.5 5.50969 16.5 5.16542 16.3332C4.86232 16.1863 4.61083 15.951 4.44411 15.6583C4.25474 15.3259 4.22551 14.8875 4.16706 14.0107L3.49967 4M1.83301 4H15.1663M11.833 4L11.6075 3.32339C11.3889 2.66771 11.2796 2.33987 11.0769 2.09748C10.8979 1.88345 10.6681 1.71777 10.4084 1.61565C10.1144 1.5 9.7688 1.5 9.07765 1.5H7.9217C7.23055 1.5 6.88497 1.5 6.59093 1.61565C6.33127 1.71777 6.10141 1.88345 5.92241 2.09748C5.71972 2.33987 5.61044 2.66771 5.39188 3.32339L5.16634 4M10.1663 7.33333V13.1667M6.83301 7.33333V13.1667" stroke="#3393A1" stroke-width="2" stroke-linecap="round" stroke-linejoin="round"/>
</svg>