<svg width="24" height="24" viewBox="0 0 24 24" fill="none" xmlns="http://www.w3.org/2000/svg">
<path d="M4.8375 4.83773C3.42236 6.25408 2.4589 8.0582 2.06892 10.022C1.67895 11.9858 1.87996 14.0212 2.64655 15.8708C3.41314 17.7204 4.71089 19.3012 6.37575 20.4134C8.04061 21.5255 9.99783 22.1191 12 22.1191C14.0022 22.1191 15.9594 21.5255 17.6243 20.4134C19.2891 19.3012 20.5869 17.7204 21.3535 15.8708C22.12 14.0212 22.3211 11.9858 21.9311 10.022C21.5411 8.0582 20.5776 6.25408 19.1625 4.83773C17.2615 2.94073 14.6856 1.87535 12 1.87535C9.31441 1.87535 6.7385 2.94073 4.8375 4.83773ZM17.5706 6.43148C18.6714 7.53306 19.4208 8.93626 19.7241 10.4637C20.0275 11.9911 19.8712 13.5742 19.275 15.0128C18.6787 16.4514 17.6694 17.681 16.3745 18.546C15.0796 19.4111 13.5573 19.8728 12 19.8728C10.4427 19.8728 8.92043 19.4111 7.62552 18.546C6.33062 17.681 5.32126 16.4514 4.72504 15.0128C4.12882 13.5742 3.97251 11.9911 4.27587 10.4637C4.57924 8.93626 5.32865 7.53306 6.42938 6.43148C7.90762 4.95582 9.91089 4.12686 11.9996 4.1265C14.0883 4.12615 16.0919 4.95444 17.5706 6.42961V6.43148ZM9.79407 7.45429L12 9.65648L14.2059 7.45054C14.3106 7.3459 14.4348 7.26289 14.5716 7.20625C14.7083 7.14962 14.8548 7.12047 15.0028 7.12047C15.1508 7.12047 15.2974 7.14962 15.4341 7.20625C15.5708 7.26289 15.695 7.3459 15.7997 7.45054C15.9043 7.55519 15.9873 7.67942 16.044 7.81615C16.1006 7.95288 16.1298 8.09942 16.1298 8.24742C16.1298 8.39541 16.1006 8.54195 16.044 8.67868C15.9873 8.81541 15.9043 8.93965 15.7997 9.04429L12.7997 12.0443C12.6952 12.1492 12.571 12.2324 12.4342 12.2892C12.2975 12.346 12.1509 12.3752 12.0028 12.3752C11.8547 12.3752 11.7081 12.346 11.5714 12.2892C11.4346 12.2324 11.3105 12.1492 11.2059 12.0443L8.20594 9.04429C7.9946 8.83295 7.87586 8.5463 7.87586 8.24742C7.87586 7.94853 7.9946 7.66189 8.20594 7.45054C8.41729 7.2392 8.70393 7.12047 9.00282 7.12047C9.3017 7.12047 9.58835 7.2392 9.79969 7.45054L9.79407 7.45429ZM9.79407 12.7043L12 14.9065L14.2059 12.7015C14.3106 12.5968 14.4348 12.5138 14.5716 12.4572C14.7083 12.4006 14.8548 12.3714 15.0028 12.3714C15.1508 12.3714 15.2974 12.4006 15.4341 12.4572C15.5708 12.5138 15.695 12.5968 15.7997 12.7015C15.9043 12.8061 15.9873 12.9304 16.044 13.0671C16.1006 13.2038 16.1298 13.3504 16.1298 13.4984C16.1298 13.6463 16.1006 13.7929 16.044 13.9296C15.9873 14.0663 15.9043 14.1906 15.7997 14.2952L12.7997 17.2952C12.6952 17.4001 12.571 17.4833 12.4342 17.5401C12.2975 17.5969 12.1509 17.6261 12.0028 17.6261C11.8547 17.6261 11.7081 17.5969 11.5714 17.5401C11.4346 17.4833 11.3105 17.4001 11.2059 17.2952L8.20594 14.2952C8.10129 14.1906 8.01828 14.0663 7.96165 13.9296C7.90501 13.7929 7.87586 13.6463 7.87586 13.4984C7.87586 13.3504 7.90501 13.2038 7.96165 13.0671C8.01828 12.9304 8.10129 12.8061 8.20594 12.7015C8.31059 12.5968 8.43482 12.5138 8.57155 12.4572C8.70828 12.4006 8.85482 12.3714 9.00282 12.3714C9.15081 12.3714 9.29735 12.4006 9.43408 12.4572C9.57081 12.5138 9.69504 12.5968 9.79969 12.7015L9.79407 12.7043Z" fill="#3393A1"/>
</svg>
