<svg width="40" height="40" viewBox="0 0 40 40" fill="none" xmlns="http://www.w3.org/2000/svg">
<rect width="40" height="40" rx="6" fill="url(#paint0_linear_4297_44739)"/>
<path d="M14.7046 17.4209C14.4932 17.2096 14.3745 16.9229 14.3745 16.6241C14.3745 16.3252 14.4932 16.0385 14.7046 15.8272C14.9159 15.6158 15.2025 15.4971 15.5014 15.4971C15.8003 15.4971 16.087 15.6158 16.2983 15.8272L18.8755 18.4062V11.375C18.8755 11.0766 18.994 10.7905 19.205 10.5795C19.416 10.3685 19.7021 10.25 20.0005 10.25C20.2989 10.25 20.585 10.3685 20.796 10.5795C21.007 10.7905 21.1255 11.0766 21.1255 11.375V18.4062L23.7045 15.8263C23.9159 15.6149 24.2025 15.4962 24.5014 15.4962C24.8003 15.4962 25.087 15.6149 25.2983 15.8263C25.5096 16.0376 25.6284 16.3242 25.6284 16.6231C25.6284 16.922 25.5096 17.2087 25.2983 17.42L20.7983 21.92C20.6938 22.0249 20.5696 22.1081 20.4328 22.1649C20.2961 22.2217 20.1495 22.2509 20.0014 22.2509C19.8534 22.2509 19.7068 22.2217 19.57 22.1649C19.4333 22.1081 19.3091 22.0249 19.2046 21.92L14.7046 17.4209ZM29.0005 20H25.6255C25.3271 20 25.041 20.1185 24.83 20.3295C24.619 20.5405 24.5005 20.8266 24.5005 21.125C24.5005 21.4234 24.619 21.7095 24.83 21.9205C25.041 22.1315 25.3271 22.25 25.6255 22.25H28.6255V27.5H11.3755V22.25H14.3755C14.6739 22.25 14.96 22.1315 15.171 21.9205C15.382 21.7095 15.5005 21.4234 15.5005 21.125C15.5005 20.8266 15.382 20.5405 15.171 20.3295C14.96 20.1185 14.6739 20 14.3755 20H11.0005C10.5032 20 10.0263 20.1975 9.67466 20.5492C9.32303 20.9008 9.12549 21.3777 9.12549 21.875V27.875C9.12549 28.3723 9.32303 28.8492 9.67466 29.2008C10.0263 29.5525 10.5032 29.75 11.0005 29.75H29.0005C29.4978 29.75 29.9747 29.5525 30.3263 29.2008C30.6779 28.8492 30.8755 28.3723 30.8755 27.875V21.875C30.8755 21.3777 30.6779 20.9008 30.3263 20.5492C29.9747 20.1975 29.4978 20 29.0005 20ZM27.1255 24.875C27.1255 24.5783 27.0375 24.2883 26.8727 24.0416C26.7079 23.795 26.4736 23.6027 26.1995 23.4892C25.9254 23.3756 25.6238 23.3459 25.3329 23.4038C25.0419 23.4617 24.7746 23.6046 24.5648 23.8143C24.3551 24.0241 24.2122 24.2914 24.1543 24.5824C24.0964 24.8733 24.1261 25.1749 24.2397 25.449C24.3532 25.7231 24.5455 25.9574 24.7921 26.1222C25.0388 26.287 25.3288 26.375 25.6255 26.375C26.0233 26.375 26.4048 26.217 26.6861 25.9357C26.9675 25.6544 27.1255 25.2728 27.1255 24.875Z" fill="white"/>
<defs>
<linearGradient id="paint0_linear_4297_44739" x1="-5.1937e-10" y1="20.0579" x2="40" y2="19.9421" gradientUnits="userSpaceOnUse">
<stop stop-color="#54BEBD"/>
<stop offset="1" stop-color="#0382A5"/>
</linearGradient>
</defs>
</svg>
