<svg width="24" height="24" viewBox="0 0 24 24" fill="none" xmlns="http://www.w3.org/2000/svg">
<path d="M6.70455 9.42094C6.49321 9.20959 6.37447 8.92295 6.37447 8.62406C6.37447 8.32518 6.49321 8.03853 6.70455 7.82719C6.9159 7.61584 7.20254 7.49711 7.50143 7.49711C7.80031 7.49711 8.08696 7.61584 8.2983 7.82719L10.8755 10.4062V3.375C10.8755 3.07663 10.994 2.79048 11.205 2.5795C11.416 2.36853 11.7021 2.25 12.0005 2.25C12.2989 2.25 12.585 2.36853 12.796 2.5795C13.007 2.79048 13.1255 3.07663 13.1255 3.375V10.4062L15.7045 7.82625C15.9159 7.61491 16.2025 7.49617 16.5014 7.49617C16.8003 7.49617 17.087 7.61491 17.2983 7.82625C17.5096 8.03759 17.6284 8.32424 17.6284 8.62313C17.6284 8.92201 17.5096 9.20866 17.2983 9.42L12.7983 13.92C12.6938 14.0249 12.5696 14.1081 12.4328 14.1649C12.2961 14.2217 12.1495 14.2509 12.0014 14.2509C11.8534 14.2509 11.7068 14.2217 11.57 14.1649C11.4333 14.1081 11.3091 14.0249 11.2046 13.92L6.70455 9.42094ZM21.0005 12H17.6255C17.3271 12 17.041 12.1185 16.83 12.3295C16.619 12.5405 16.5005 12.8266 16.5005 13.125C16.5005 13.4234 16.619 13.7095 16.83 13.9205C17.041 14.1315 17.3271 14.25 17.6255 14.25H20.6255V19.5H3.37549V14.25H6.37549C6.67386 14.25 6.96001 14.1315 7.17098 13.9205C7.38196 13.7095 7.50049 13.4234 7.50049 13.125C7.50049 12.8266 7.38196 12.5405 7.17098 12.3295C6.96001 12.1185 6.67386 12 6.37549 12H3.00049C2.50321 12 2.02629 12.1975 1.67466 12.5492C1.32303 12.9008 1.12549 13.3777 1.12549 13.875V19.875C1.12549 20.3723 1.32303 20.8492 1.67466 21.2008C2.02629 21.5525 2.50321 21.75 3.00049 21.75H21.0005C21.4978 21.75 21.9747 21.5525 22.3263 21.2008C22.6779 20.8492 22.8755 20.3723 22.8755 19.875V13.875C22.8755 13.3777 22.6779 12.9008 22.3263 12.5492C21.9747 12.1975 21.4978 12 21.0005 12ZM19.1255 16.875C19.1255 16.5783 19.0375 16.2883 18.8727 16.0416C18.7079 15.795 18.4736 15.6027 18.1995 15.4892C17.9254 15.3756 17.6238 15.3459 17.3329 15.4038C17.0419 15.4617 16.7746 15.6046 16.5648 15.8143C16.3551 16.0241 16.2122 16.2914 16.1543 16.5824C16.0964 16.8733 16.1261 17.1749 16.2397 17.449C16.3532 17.7231 16.5455 17.9574 16.7921 18.1222C17.0388 18.287 17.3288 18.375 17.6255 18.375C18.0233 18.375 18.4048 18.217 18.6861 17.9357C18.9675 17.6544 19.1255 17.2728 19.1255 16.875Z" fill="white"/>
</svg>
