<svg width="18" height="18" viewBox="0 0 24 24" fill="none" xmlns="http://www.w3.org/2000/svg">
<path d="M21.75 12.812C21.5907 14.6645 20.9056 16.4329 19.7753 17.9092C18.645 19.3856 17.1166 20.5084 15.3699 21.1456C13.6232 21.7828 11.7308 21.9079 9.91544 21.5061C8.10005 21.1043 6.43717 20.1924 5.12243 18.8777C3.8077 17.563 2.89581 15.9001 2.49404 14.0847C2.09227 12.2693 2.21735 10.3769 2.85455 8.6302C3.49175 6.88348 4.61456 5.35508 6.0909 4.22482C7.56723 3.09455 9.33567 2.40945 11.1881 2.25011C11.2866 2.24198 11.3858 2.25333 11.4799 2.28352C11.574 2.3137 11.6612 2.36213 11.7366 2.42602C11.812 2.48992 11.8741 2.56804 11.9192 2.65593C11.9644 2.74381 11.9919 2.83974 12 2.93823C12.0081 3.03672 11.9968 3.13585 11.9666 3.22995C11.9364 3.32406 11.888 3.41129 11.8241 3.48668C11.7602 3.56207 11.6821 3.62414 11.5942 3.66934C11.5063 3.71454 11.4104 3.74198 11.3119 3.75011C9.74401 3.88482 8.24721 4.46455 6.99762 5.42107C5.74803 6.3776 4.79764 7.67113 4.25826 9.14947C3.71888 10.6278 3.61297 12.2295 3.95297 13.766C4.29298 15.3024 5.06476 16.7099 6.17751 17.8226C7.29026 18.9354 8.69768 19.7071 10.2342 20.0472C11.7707 20.3872 13.3723 20.2812 14.8506 19.7419C16.329 19.2025 17.6225 18.2521 18.5791 17.0025C19.5356 15.7529 20.1153 14.2561 20.25 12.6882C20.2664 12.4893 20.3612 12.3051 20.5134 12.176C20.6657 12.047 20.863 11.9837 21.0619 12.0001C21.2608 12.0165 21.4451 12.1113 21.5741 12.2635C21.7031 12.4158 21.7664 12.6131 21.75 12.812ZM11.25 6.75011V12.0001C11.25 12.199 11.329 12.3898 11.4697 12.5304C11.6103 12.6711 11.8011 12.7501 12 12.7501H17.25C17.4489 12.7501 17.6397 12.6711 17.7803 12.5304C17.921 12.3898 18 12.199 18 12.0001C18 11.8012 17.921 11.6104 17.7803 11.4698C17.6397 11.3291 17.4489 11.2501 17.25 11.2501H12.75V6.75011C12.75 6.55119 12.671 6.36043 12.5303 6.21978C12.3897 6.07912 12.1989 6.00011 12 6.00011C11.8011 6.00011 11.6103 6.07912 11.4697 6.21978C11.329 6.36043 11.25 6.55119 11.25 6.75011ZM15 4.50011C15.2225 4.50011 15.44 4.43413 15.625 4.31051C15.81 4.18689 15.9542 4.01119 16.0394 3.80563C16.1245 3.60006 16.1468 3.37386 16.1034 3.15563C16.06 2.9374 15.9528 2.73695 15.7955 2.57961C15.6382 2.42228 15.4377 2.31513 15.2195 2.27172C15.0013 2.22831 14.7751 2.25059 14.5695 2.33574C14.3639 2.42089 14.1882 2.56508 14.0646 2.75009C13.941 2.9351 13.875 3.1526 13.875 3.37511C13.875 3.67348 13.9935 3.95962 14.2045 4.1706C14.4155 4.38158 14.7016 4.50011 15 4.50011ZM18.375 6.75011C18.5975 6.75011 18.815 6.68413 19 6.56051C19.185 6.43689 19.3292 6.26119 19.4144 6.05563C19.4995 5.85006 19.5218 5.62386 19.4784 5.40563C19.435 5.1874 19.3278 4.98695 19.1705 4.82961C19.0132 4.67228 18.8127 4.56513 18.5945 4.52172C18.3763 4.47831 18.1501 4.50059 17.9445 4.58574C17.7389 4.67089 17.5632 4.81508 17.4396 5.00009C17.316 5.1851 17.25 5.4026 17.25 5.62511C17.25 5.92348 17.3685 6.20962 17.5795 6.4206C17.7905 6.63158 18.0766 6.75011 18.375 6.75011ZM20.625 10.1251C20.8475 10.1251 21.065 10.0591 21.25 9.93551C21.435 9.81189 21.5792 9.63619 21.6644 9.43062C21.7495 9.22506 21.7718 8.99886 21.7284 8.78063C21.685 8.5624 21.5778 8.36195 21.4205 8.20461C21.2632 8.04728 21.0627 7.94013 20.8445 7.89672C20.6263 7.85331 20.4001 7.87559 20.1945 7.96074C19.9889 8.04589 19.8132 8.19008 19.6896 8.37509C19.566 8.5601 19.5 8.7776 19.5 9.00011C19.5 9.29847 19.6185 9.58462 19.8295 9.7956C20.0405 10.0066 20.3266 10.1251 20.625 10.1251Z" fill="#43B3C4"/>
</svg>