<svg width="7" height="5" viewBox="0 0 10 5" fill="none" xmlns="http://www.w3.org/2000/svg">
<path d="M9.01536 0.765313L5.26536 4.51531C5.23054 4.55018 5.18918 4.57784 5.14365 4.59671C5.09813 4.61558 5.04933 4.62529 5.00005 4.62529C4.95077 4.62529 4.90197 4.61558 4.85645 4.59671C4.81092 4.57784 4.76957 4.55018 4.73474 4.51531L0.984739 0.765313C0.932234 0.712867 0.896472 0.646022 0.881978 0.57324C0.867484 0.500458 0.874911 0.425012 0.903318 0.356454C0.931725 0.287895 0.979835 0.229307 1.04156 0.188105C1.10328 0.146903 1.17584 0.124942 1.25005 0.125H8.75005C8.82426 0.124942 8.89682 0.146903 8.95855 0.188105C9.02027 0.229307 9.06838 0.287895 9.09678 0.356454C9.12519 0.425012 9.13262 0.500458 9.11812 0.57324C9.10363 0.646022 9.06787 0.712867 9.01536 0.765313Z" fill="#4E4B66"/>
</svg>