<svg width="24" height="36" viewBox="0 0 24 36" fill="none" xmlns="http://www.w3.org/2000/svg">
<path d="M10.2695 2.5418C10.2796 2.45585 10.2608 2.36924 10.2154 2.29186C10.17 2.21448 10.0998 2.14945 10.0128 2.1042C9.8536 2.05184 9.68263 2.03002 9.51224 2.04031H8.99457V3.06137H9.6848C9.764 3.06315 9.8428 3.05124 9.91637 3.02636C9.98994 3.00149 10.0567 2.96418 10.1126 2.91671C10.1665 2.8655 10.2078 2.8058 10.2342 2.74105C10.2606 2.67629 10.2717 2.60776 10.2666 2.53939L10.2695 2.5418ZM10.492 3.57129L11.369 4.91904C11.3808 4.93605 11.387 4.95539 11.387 4.9751C11.387 4.9948 11.3808 5.01415 11.369 5.03116C11.359 5.04956 11.3425 5.06494 11.3219 5.07527C11.3013 5.08561 11.2774 5.0904 11.2535 5.08902H10.5975C10.5716 5.09122 10.5455 5.08631 10.5232 5.07502C10.5008 5.06373 10.4834 5.04666 10.4734 5.02633L9.64344 3.71354H8.98602V4.97811C8.98738 4.99333 8.98505 5.00862 8.97917 5.02305C8.9733 5.03748 8.964 5.05074 8.95185 5.06203C8.9397 5.07331 8.92496 5.08238 8.90852 5.08868C8.89207 5.09498 8.87428 5.09838 8.85624 5.09866H8.2744C8.25635 5.1 8.23818 5.09815 8.22102 5.09326C8.20386 5.08836 8.18808 5.08051 8.17468 5.0702C8.16128 5.0599 8.15055 5.04736 8.14317 5.03338C8.13579 5.0194 8.13192 5.00427 8.13179 4.98896V1.50627C8.12903 1.47671 8.14023 1.44743 8.16295 1.42484C8.18567 1.40225 8.21805 1.38818 8.25301 1.38572H9.52793C9.80284 1.37552 10.0778 1.40529 10.3408 1.47372C10.5781 1.54703 10.7791 1.68594 10.9112 1.86792C11.0525 2.06375 11.1247 2.28958 11.1194 2.51889C11.1237 2.73001 11.0606 2.93821 10.9369 3.12164C10.8232 3.2924 10.6513 3.4302 10.4435 3.51705L10.4834 3.57732L10.492 3.57129ZM9.63632 0.581655C9.21568 0.580483 8.79922 0.652284 8.41273 0.792617C7.84326 0.998846 7.35878 1.34297 7.02034 1.78162C6.68191 2.22026 6.50467 2.73379 6.51099 3.25746C6.5173 3.78112 6.70688 4.29148 7.05582 4.72421C7.40477 5.15693 7.89746 5.49263 8.47177 5.68901C9.04609 5.88538 9.67633 5.93363 10.283 5.82766C10.8897 5.7217 11.4458 5.46627 11.881 5.09358C12.3162 4.72089 12.6112 4.24762 12.7287 3.73343C12.8462 3.21925 12.781 2.68716 12.5413 2.20426C12.3017 1.72128 11.8978 1.30933 11.3809 1.02066C10.864 0.731997 10.2573 0.579619 9.63774 0.58286L9.63632 0.581655ZM13.4711 3.23375C13.4687 3.87047 13.2455 4.49261 12.829 5.02315C12.4125 5.55368 11.8211 5.96931 11.128 6.21857C10.5459 6.42637 9.91193 6.50916 9.28274 6.45954C8.65356 6.40992 8.04868 6.22944 7.52206 5.9342C6.99544 5.63896 6.56344 5.23813 6.2646 4.76747C5.96576 4.29681 5.80936 3.77094 5.80936 3.23677C5.80936 2.7026 5.96576 2.17673 6.2646 1.70607C6.56344 1.2354 6.99544 0.834576 7.52206 0.539334C8.04868 0.244092 8.65356 0.0636134 9.28274 0.0139949C9.91193 -0.0356235 10.5459 0.0471614 11.128 0.254965C11.821 0.503351 12.4127 0.918001 12.8299 1.44764C13.2471 1.97727 13.4715 2.59866 13.4753 3.23496L13.4711 3.23375Z" fill="#26009C"/>
<path d="M7.68663 9.18872H0V15.6876H7.68663V9.18872Z" fill="#1F009E"/>
<path d="M15.3517 15.687H7.66364V22.1859H15.3517V15.687Z" fill="#1F009E"/>
<path d="M23.9999 18.9382H16.3119V25.4371H23.9999V18.9382Z" fill="url(#paint0_linear_773_8177)"/>
<path d="M7.68663 29.4988H0V36H7.68663V29.4988Z" fill="#4DB151"/>
<path d="M15.3517 22.9988H7.66364V29.4976H15.3517V22.9988Z" fill="#4DB151"/>
<defs>
<linearGradient id="paint0_linear_773_8177" x1="19.2515" y1="18.4262" x2="19.2515" y2="25.7577" gradientUnits="userSpaceOnUse">
<stop stop-color="#171891"/>
<stop offset="1" stop-color="#4FA94E"/>
</linearGradient>
</defs>
</svg>
