<svg width="134" height="39" viewBox="0 0 134 39" fill="none" xmlns="http://www.w3.org/2000/svg">
<path d="M11.1552 38.8878C9.67376 38.9026 8.19464 38.7672 6.74033 38.4836C5.40453 38.2531 4.1369 37.726 3.03004 36.9408C1.97014 36.083 1.18082 34.9352 0.757743 33.6363C0.320844 32.3462 0.0740695 30.9989 0.0252364 29.6372C-0.0512126 28.0065 0.0481734 26.3721 0.321663 24.7628C0.724524 23.41 1.39911 22.1543 2.30384 21.0731C3.14998 20.0416 4.19936 19.1967 5.38614 18.5915C6.95121 17.8245 8.67495 17.4402 10.4164 17.4701C11.1192 17.4724 11.8211 17.5214 12.5175 17.6166C15.5709 18.029 17.7973 19.2219 19.1263 21.1617C19.6219 21.8958 19.9876 22.7102 20.2075 23.5691C20.3988 24.3079 20.5037 25.0667 20.5201 25.8299C20.5448 26.6163 20.4789 27.4028 20.3237 28.174H5.46182C5.39994 28.9857 5.45395 29.8022 5.6222 30.5986C5.76959 31.3287 6.03758 32.029 6.41507 32.6704C6.85361 33.41 7.47011 34.0273 8.20804 34.4656C9.39063 35.0155 10.6916 35.2596 11.9922 35.1755C13.1941 35.1668 14.3936 35.0652 15.58 34.8716C16.5697 34.7236 17.5462 34.4968 18.5001 34.1934L17.8694 38.2629C15.6544 38.6583 13.4102 38.8656 11.1606 38.8824L11.1552 38.8878ZM10.847 20.97C9.85783 20.9487 8.88355 21.2147 8.04136 21.7359C7.39113 22.1599 6.84945 22.7314 6.46012 23.4045C6.02301 24.1513 5.73247 24.9752 5.60418 25.8317H15.2268C15.2458 25.4049 15.2177 24.9772 15.143 24.5566C15.0115 23.6859 14.6366 22.8706 14.0618 22.2053C13.646 21.784 13.146 21.4561 12.5946 21.2431C12.0432 21.0302 11.4531 20.9371 10.8633 20.97H10.847Z" fill="#26009C"/>
<path d="M20.5246 38.5306L28.9768 27.8312L22.3149 17.953H28.9768L32.515 23.5862L36.8398 17.9485H43.0278L35.4054 27.8267L42.6494 38.5306H36.1433L31.7564 32.0735L26.8613 38.5306H20.5246Z" fill="#26009C"/>
<path d="M55.8966 35.3555C55.766 35.4459 54.8533 38.8734 54.8533 38.8734C54.8533 38.8734 48.7905 39.5571 46.101 37.761C43.4116 35.965 42.5538 30.1482 47.9283 27.9362C53.3027 25.7242 58.1491 26.0045 58.2545 23.1296C58.3599 20.2547 54.4776 20.7982 54.4776 20.7982C51.7872 20.9831 49.1356 21.5435 46.5993 22.4631C46.9164 20.223 47.2084 18.6928 47.2084 18.6928C47.2084 18.6928 57.9572 16.4817 61.5639 18.4215C65.1705 20.3614 63.7641 23.5519 63.7614 28.4309C63.7587 33.3098 63.3568 38.5388 63.3568 38.5388H57.6572L58.2545 27.9389C56.6451 28.7729 54.9314 29.3864 53.1594 29.763C51.3115 30.1084 48.6635 31.4641 49.5284 34.6465C50.9394 36.6089 53.8919 35.8357 55.8966 35.3555Z" fill="#26009C"/>
<path d="M108.178 35.3555C108.048 35.4459 107.135 38.8734 107.135 38.8734C107.135 38.8734 101.072 39.5571 98.3829 37.761C95.6934 35.965 94.8348 30.1473 100.21 27.9362C105.585 25.7251 110.431 26.0045 110.536 23.1296C110.642 20.2547 106.759 20.7982 106.759 20.7982C104.069 20.9831 101.417 21.5435 98.8811 22.4631C99.1983 20.223 99.4902 18.6928 99.4902 18.6928C99.4902 18.6928 110.239 16.4817 113.846 18.4215C117.452 20.3614 116.046 23.5519 116.043 28.4309C116.041 33.3098 115.639 38.5388 115.639 38.5388H109.938L110.535 27.9389C108.925 28.7731 107.212 29.3866 105.44 29.763C103.592 30.1084 100.944 31.4641 101.809 34.6465C103.221 36.6089 106.174 35.8357 108.178 35.3555Z" fill="#26009C"/>
<path d="M67.9375 38.5306H73.7426C73.7426 38.5306 73.6975 24.5304 74.8688 10.7915C72.8404 10.913 70.8065 10.913 68.7781 10.7915L67.9375 38.5306Z" fill="#26009C"/>
<path d="M94.0437 34.0459L93.5608 38.281C93.5608 38.281 85.3987 40.3221 80.8154 37.1632C76.232 34.0043 77.0654 27.0001 77.0997 26.803C77.1339 26.6058 78.3971 20.8578 82.6237 18.6394C86.8502 16.421 94.3996 18.312 94.3996 18.312V22.7994C94.3996 22.7994 90.1046 21.1996 86.9349 22.1058C83.1399 23.0273 79.9828 31.4866 85.4564 34.0513C88.7576 35.6819 94.0437 34.0459 94.0437 34.0459Z" fill="#26009C"/>
<path d="M125.324 13.0841C125.331 13.0196 125.319 12.9546 125.29 12.8966C125.262 12.8385 125.217 12.7897 125.162 12.7558C125.062 12.7165 124.954 12.7001 124.846 12.7079H124.519V13.4738H124.955C125.005 13.4752 125.055 13.4662 125.101 13.4476C125.148 13.4289 125.19 13.4009 125.225 13.3653C125.259 13.3269 125.285 13.2821 125.302 13.2335C125.319 13.185 125.326 13.1335 125.323 13.0823L125.324 13.0841ZM125.465 13.8564L126.019 14.8674C126.026 14.8802 126.03 14.8947 126.03 14.9095C126.03 14.9243 126.026 14.9388 126.019 14.9515C126.013 14.9654 126.002 14.9769 125.989 14.9846C125.976 14.9924 125.961 14.996 125.946 14.995H125.532C125.515 14.9966 125.499 14.9929 125.485 14.9845C125.471 14.976 125.459 14.9632 125.453 14.9479L124.929 13.9631H124.513V14.9118C124.514 14.9232 124.513 14.9346 124.509 14.9455C124.505 14.9563 124.5 14.9662 124.492 14.9747C124.484 14.9832 124.475 14.99 124.464 14.9947C124.454 14.9994 124.443 15.002 124.431 15.0022H124.064C124.052 15.0032 124.041 15.0018 124.03 14.9981C124.019 14.9945 124.009 14.9886 124.001 14.9808C123.992 14.9731 123.986 14.9637 123.981 14.9532C123.976 14.9427 123.974 14.9314 123.974 14.9199V12.3072C123.972 12.2851 123.979 12.2631 123.993 12.2461C124.008 12.2292 124.028 12.2186 124.05 12.2168H124.856C125.03 12.2091 125.203 12.2315 125.369 12.2828C125.519 12.3378 125.646 12.442 125.73 12.5785C125.819 12.7254 125.865 12.8949 125.861 13.0669C125.864 13.2253 125.824 13.3815 125.746 13.5191C125.674 13.6472 125.566 13.7505 125.434 13.8157L125.459 13.8609L125.465 13.8564ZM124.924 11.6136C124.659 11.6127 124.395 11.6666 124.151 11.7719C123.791 11.9266 123.485 12.1847 123.272 12.5138C123.058 12.8429 122.946 13.2281 122.95 13.6209C122.954 14.0138 123.074 14.3967 123.294 14.7213C123.514 15.0459 123.826 15.2977 124.189 15.4451C124.551 15.5924 124.95 15.6286 125.333 15.5491C125.716 15.4696 126.068 15.278 126.342 14.9984C126.617 14.7188 126.804 14.3638 126.878 13.978C126.952 13.5923 126.911 13.1931 126.76 12.8308C126.608 12.4685 126.353 12.1595 126.027 11.9429C125.7 11.7264 125.317 11.6121 124.925 11.6145L124.924 11.6136ZM127.347 13.6032C127.346 14.0808 127.205 14.5475 126.941 14.9455C126.678 15.3435 126.305 15.6553 125.867 15.8423C125.499 15.9982 125.098 16.0603 124.701 16.0231C124.303 15.9859 123.921 15.8505 123.589 15.629C123.256 15.4075 122.983 15.1068 122.794 14.7537C122.605 14.4006 122.506 14.0062 122.506 13.6054C122.506 13.2047 122.605 12.8102 122.794 12.4571C122.983 12.104 123.256 11.8033 123.589 11.5818C123.921 11.3604 124.303 11.225 124.701 11.1877C125.098 11.1505 125.499 11.2126 125.867 11.3685C126.305 11.5549 126.678 11.8659 126.942 12.2632C127.206 12.6606 127.347 13.1267 127.35 13.6041L127.347 13.6032Z" fill="#26009C"/>
<path d="M123.693 18.0706H118.836V22.9459H123.693V18.0706Z" fill="#1F009E"/>
<path d="M128.535 22.9458H123.678V27.8211H128.535V22.9458Z" fill="#1F009E"/>
<path d="M134 25.384H129.143V30.2594H134V25.384Z" fill="url(#paint0_linear_468_8317)"/>
<path d="M123.693 33.3062H118.836V38.1833H123.693V33.3062Z" fill="#4DB151"/>
<path d="M128.535 28.4307H123.678V33.306H128.535V28.4307Z" fill="#4DB151"/>
<path d="M0 1.01757C0.732414 0.898172 1.47347 0.840235 2.21547 0.844365C3.1138 0.775736 4.00587 1.04132 4.72164 1.59049C4.98062 1.82719 5.18491 2.11787 5.3202 2.44215C5.45548 2.76644 5.5185 3.1165 5.50482 3.4678C5.52211 3.81735 5.47 4.16686 5.3515 4.49601C5.233 4.82516 5.05048 5.12737 4.81456 5.38507C4.44892 5.72575 4.01844 5.9887 3.54898 6.15814C3.07952 6.32757 2.58078 6.39998 2.08272 6.37103C1.77094 6.38107 1.45906 6.35424 1.15353 6.29108V9.88848H0V1.01757ZM1.15353 5.34777C1.46702 5.41854 1.78807 5.44987 2.10927 5.44103C3.50306 5.44103 4.34996 4.76153 4.34996 3.52376C4.34996 2.33928 3.51501 1.76636 2.24201 1.76636C1.87684 1.75616 1.51169 1.78745 1.15353 1.85963V5.34777Z" fill="#3F3F3F"/>
<path d="M12.4996 6.61216C12.4996 8.99444 10.8549 10.0337 9.30185 10.0337C7.56425 10.0337 6.22488 8.75461 6.22488 6.71742C6.22488 4.56165 7.63062 3.2959 9.41069 3.2959C11.2532 3.29457 12.4996 4.63893 12.4996 6.61216ZM7.40496 6.67878C7.40496 8.09109 8.21469 9.15565 9.35494 9.15565C10.47 9.15565 11.3063 8.10441 11.3063 6.65213C11.3063 5.56092 10.762 4.17659 9.38149 4.17659C8.00097 4.17659 7.40496 5.45167 7.40496 6.67878Z" fill="#3F3F3F"/>
<path d="M14.3448 3.44116L15.1943 6.71612C15.3802 7.4356 15.5514 8.10178 15.6709 8.76797H15.7107C15.8567 8.11511 16.0691 7.42228 16.2815 6.73078L17.3315 3.44116H18.3138L19.3093 6.66416C19.5483 7.4356 19.7341 8.11511 19.8801 8.76797H19.9199C20.045 8.06212 20.209 7.36377 20.4111 6.67615L21.327 3.44116H22.4805L20.4111 9.88582H19.3491L18.3669 6.80939C18.1408 6.11435 17.9503 5.40816 17.7961 4.69359H17.7695C17.6165 5.41502 17.4214 6.12684 17.1854 6.82538L16.1514 9.88982H15.0894L13.1501 3.44116H14.3448Z" fill="#3F3F3F"/>
<path d="M24.1689 6.87863C24.1435 7.17648 24.1828 7.47632 24.2842 7.75743C24.3855 8.03853 24.5464 8.29421 24.7558 8.50679C24.9652 8.71937 25.2181 8.88379 25.497 8.98869C25.7758 9.09359 26.0741 9.13646 26.3711 9.11435C26.9806 9.13346 27.587 9.01982 28.1485 8.78126L28.3476 9.62065C27.6717 9.90332 26.9439 10.0395 26.2118 10.0204C24.234 10.0204 23.0539 8.71464 23.0539 6.77071C23.0539 4.82679 24.1955 3.2959 26.0658 3.2959C28.1618 3.2959 28.7207 5.14656 28.7207 6.33236C28.7181 6.51508 28.7048 6.69749 28.6808 6.87863H24.1689ZM27.591 6.03924C27.6043 5.29312 27.2857 4.13529 25.9729 4.13529C24.7915 4.13529 24.2751 5.2265 24.1809 6.03924H27.591Z" fill="#3F3F3F"/>
<path d="M30.1677 5.45165C30.1677 4.69353 30.1544 4.04067 30.1146 3.44111H31.1353L31.1752 4.70686H31.2283C31.3377 4.31253 31.569 3.96326 31.8889 3.70943C32.2089 3.4556 32.6008 3.31032 33.0083 3.29455C33.1202 3.29303 33.2318 3.30648 33.3402 3.33452V4.44039C33.2094 4.41183 33.0758 4.39842 32.942 4.40041C32.5431 4.41652 32.1638 4.57826 31.8754 4.85525C31.587 5.13224 31.4093 5.50542 31.3756 5.90466C31.3428 6.08495 31.3251 6.26767 31.3225 6.45093V9.88577H30.1677V5.45165Z" fill="#3F3F3F"/>
<path d="M35.0252 6.8785C34.9998 7.17635 35.0391 7.47619 35.1405 7.75729C35.2418 8.0384 35.4027 8.29408 35.6121 8.50666C35.8215 8.71924 36.0744 8.88366 36.3533 8.98856C36.6322 9.09345 36.9304 9.13633 37.2274 9.11422C37.8365 9.13345 38.4425 9.01981 39.0035 8.78112L39.2026 9.62051C38.5262 9.90332 37.798 10.0395 37.0655 10.0202C35.089 10.0202 33.9089 8.71451 33.9089 6.77058C33.9089 4.82666 35.0518 3.29443 36.9221 3.29443C39.0181 3.29443 39.577 5.14509 39.577 6.3309C39.5746 6.51367 39.5609 6.69612 39.5358 6.87717L35.0252 6.8785ZM38.4473 6.03911C38.4606 5.29298 38.142 4.13516 36.8292 4.13516C35.6478 4.13516 35.1314 5.22637 35.0372 6.03911H38.4473Z" fill="#3F3F3F"/>
<path d="M46.5693 0.432617V8.22164C46.5693 8.79456 46.5825 9.44608 46.6224 9.8871H45.5737L45.5219 8.76924H45.4954C45.2857 9.16552 44.969 9.49446 44.5817 9.71833C44.1943 9.94221 43.7518 10.052 43.3051 10.035C41.7521 10.035 40.5587 8.71595 40.5587 6.76003C40.5454 4.61492 41.8715 3.29588 43.4366 3.29588C43.8178 3.27242 44.1983 3.35142 44.5389 3.52472C44.8796 3.69803 45.1681 3.95937 45.3746 4.28183H45.4011V0.432617H46.5693ZM45.4025 6.0672C45.4041 5.90128 45.3858 5.73577 45.348 5.57422C45.2651 5.1883 45.0524 4.84275 44.7457 4.59555C44.439 4.34835 44.0569 4.21453 43.6635 4.21654C42.4569 4.21654 41.7388 5.28244 41.7388 6.70674C41.7388 8.01112 42.3759 9.08901 43.6357 9.08901C44.0373 9.08757 44.4263 8.94789 44.7377 8.69328C45.0491 8.43867 45.2641 8.08454 45.3467 7.69002C45.3859 7.52421 45.4042 7.35411 45.4011 7.18372L45.4025 6.0672Z" fill="#3F3F3F"/>
<path d="M51.271 9.88577C51.2975 9.44609 51.3241 8.79456 51.3241 8.22031V0.432617H52.4776V4.48035H52.5042C52.7255 4.09981 53.047 3.78783 53.4333 3.57865C53.8197 3.36947 54.256 3.27117 54.6944 3.29454C56.2873 3.29454 57.4156 4.62691 57.3997 6.58283C57.3997 8.88716 55.9541 10.0323 54.5218 10.0323C54.0858 10.0574 53.6517 9.95669 53.2709 9.74207C52.8901 9.52746 52.5784 9.20792 52.3727 8.82121H52.3329L52.2798 9.8871L51.271 9.88577ZM52.4776 7.30231C52.4814 7.44582 52.4992 7.58863 52.5307 7.72866C52.6277 8.12035 52.8525 8.46816 53.1694 8.71665C53.4862 8.96513 53.8768 9.09997 54.2789 9.09967C55.4988 9.09967 56.2302 8.10039 56.2302 6.62413C56.2302 5.33173 55.5665 4.22587 54.3187 4.22587C53.9053 4.23371 53.5063 4.37975 53.1848 4.64087C52.8633 4.90198 52.6378 5.26325 52.544 5.66749C52.5052 5.8246 52.4829 5.98537 52.4776 6.14714V7.30231Z" fill="#3F3F3F"/>
<path d="M59.2077 3.44116L60.6134 7.24907C60.7581 7.67543 60.9187 8.18173 61.0249 8.56678H61.0515C61.1696 8.18173 61.3037 7.68875 61.4616 7.22375L62.736 3.44183H63.9705L62.2183 8.0385C61.3833 10.2489 60.8125 11.3801 60.0174 12.0729C59.6136 12.4468 59.1194 12.7082 58.5838 12.831L58.2918 11.8464C58.6656 11.7223 59.0125 11.5279 59.3139 11.2735C59.7378 10.9215 60.0737 10.4748 60.2948 9.9691C60.342 9.88205 60.3734 9.78733 60.3878 9.6893C60.3772 9.58362 60.3504 9.48023 60.3081 9.38286L57.9347 3.44116H59.2077Z" fill="#3F3F3F"/>
<defs>
<linearGradient id="paint0_linear_468_8317" x1="131" y1="24.9999" x2="131" y2="30.4999" gradientUnits="userSpaceOnUse">
<stop stop-color="#171891"/>
<stop offset="1" stop-color="#4FA94E"/>
</linearGradient>
</defs>
</svg>
