<svg width="16" height="14" viewBox="0 0 16 14" fill="none" xmlns="http://www.w3.org/2000/svg">
<path d="M15.0162 10.6314L9.55059 1.13957C9.39228 0.868823 9.16584 0.644249 8.8938 0.488183C8.62176 0.332117 8.3136 0.25 7.99997 0.25C7.68634 0.25 7.37817 0.332117 7.10613 0.488183C6.83409 0.644249 6.60765 0.868823 6.44934 1.13957L0.983716 10.6314C0.830104 10.8942 0.749146 11.193 0.749146 11.4974C0.749146 11.8017 0.830104 12.1006 0.983716 12.3633C1.14027 12.6354 1.3664 12.8609 1.63889 13.0168C1.91139 13.1727 2.22044 13.2532 2.53434 13.2502H13.4656C13.7793 13.253 14.0881 13.1723 14.3603 13.0165C14.6326 12.8606 14.8585 12.6352 15.015 12.3633C15.1688 12.1007 15.2499 11.8019 15.2502 11.4975C15.2504 11.1932 15.1696 10.8943 15.0162 10.6314ZM13.7162 11.6127C13.6908 11.656 13.6542 11.6916 13.6101 11.7158C13.5661 11.7401 13.5164 11.7519 13.4662 11.7502H2.53434C2.48415 11.7519 2.43442 11.7401 2.39042 11.7158C2.34641 11.6916 2.30976 11.656 2.28434 11.6127C2.26278 11.5776 2.25137 11.5373 2.25137 11.4961C2.25137 11.455 2.26278 11.4146 2.28434 11.3796L7.74997 1.88769C7.77703 1.84603 7.81408 1.8118 7.85774 1.7881C7.9014 1.76439 7.95029 1.75198 7.99997 1.75198C8.04965 1.75198 8.09854 1.76439 8.1422 1.7881C8.18586 1.8118 8.2229 1.84603 8.24997 1.88769L13.715 11.3796C13.7367 11.4145 13.7483 11.4548 13.7486 11.496C13.7488 11.5371 13.7376 11.5775 13.7162 11.6127ZM7.24997 7.50019V5.50019C7.24997 5.30128 7.32898 5.11051 7.46964 4.96986C7.61029 4.82921 7.80105 4.75019 7.99997 4.75019C8.19888 4.75019 8.38965 4.82921 8.5303 4.96986C8.67095 5.11051 8.74997 5.30128 8.74997 5.50019V7.50019C8.74997 7.6991 8.67095 7.88987 8.5303 8.03052C8.38965 8.17117 8.19888 8.25019 7.99997 8.25019C7.80105 8.25019 7.61029 8.17117 7.46964 8.03052C7.32898 7.88987 7.24997 7.6991 7.24997 7.50019ZM8.99997 10.0002C8.99997 10.198 8.94132 10.3913 8.83144 10.5558C8.72156 10.7202 8.56538 10.8484 8.38265 10.9241C8.19992 10.9998 7.99886 11.0196 7.80488 10.981C7.6109 10.9424 7.43271 10.8471 7.29286 10.7073C7.15301 10.5674 7.05777 10.3893 7.01918 10.1953C6.9806 10.0013 7.0004 9.80023 7.07609 9.61751C7.15178 9.43478 7.27995 9.2786 7.4444 9.16872C7.60885 9.05884 7.80219 9.00019 7.99997 9.00019C8.26518 9.00019 8.51954 9.10555 8.70707 9.29308C8.89461 9.48062 8.99997 9.73497 8.99997 10.0002Z" fill="#FF8D28"/>
</svg>
