<svg width="12" height="12" viewBox="0 0 14 14" fill="none" xmlns="http://www.w3.org/2000/svg">
<path d="M6.99992 0.333008C3.33325 0.333008 0.333252 3.33301 0.333252 6.99967C0.333252 10.6663 3.33325 13.6663 6.99992 13.6663C10.6666 13.6663 13.6666 10.6663 13.6666 6.99967C13.6666 3.33301 10.6666 0.333008 6.99992 0.333008ZM6.99992 12.333C4.05992 12.333 1.66659 9.93967 1.66659 6.99967C1.66659 4.05967 4.05992 1.66634 6.99992 1.66634C9.93992 1.66634 12.3333 4.05967 12.3333 6.99967C12.3333 9.93967 9.93992 12.333 6.99992 12.333ZM10.0599 4.05301L5.66658 8.44634L3.93992 6.72634L2.99992 7.66634L5.66658 10.333L10.9999 4.99967L10.0599 4.05301Z" fill="#158D1A"/>
</svg>