<svg width="25" height="25" viewBox="0 0 40 40" fill="none" xmlns="http://www.w3.org/2000/svg">
<rect width="40" height="40" rx="20" fill="#E5FCFF"/>
<path d="M26.375 11.33C24.6519 10.3916 22.3888 9.875 20 9.875C17.6112 9.875 15.3481 10.3916 13.625 11.33C11.6909 12.3866 10.625 13.8669 10.625 15.5V24.5C10.625 26.1331 11.6909 27.6134 13.625 28.67C15.3453 29.6075 17.6084 30.125 20 30.125C22.3916 30.125 24.6519 29.6084 26.375 28.67C28.3119 27.6134 29.375 26.1331 29.375 24.5V15.5C29.375 13.8669 28.3091 12.3866 26.375 11.33ZM27.125 20C27.125 21.5938 24.1991 23.375 20 23.375C15.8009 23.375 12.875 21.5938 12.875 20V19.2069C13.1167 19.3744 13.367 19.529 13.625 19.67C15.3453 20.6075 17.6084 21.125 20 21.125C22.3916 21.125 24.6519 20.6084 26.375 19.67C26.633 19.529 26.8833 19.3744 27.125 19.2069V20ZM20 12.125C24.1991 12.125 27.125 13.9062 27.125 15.5C27.125 17.0938 24.1991 18.875 20 18.875C15.8009 18.875 12.875 17.0938 12.875 15.5C12.875 13.9062 15.8009 12.125 20 12.125ZM20 27.875C15.8009 27.875 12.875 26.0938 12.875 24.5V23.7069C13.1167 23.8744 13.367 24.029 13.625 24.17C15.3453 25.1075 17.6084 25.625 20 25.625C22.3916 25.625 24.6519 25.1084 26.375 24.17C26.633 24.029 26.8833 23.8744 27.125 23.7069V24.5C27.125 26.0938 24.1991 27.875 20 27.875Z" fill="#3393A1"/>
</svg>