<svg width="40" height="41" viewBox="0 0 40 41" fill="none" xmlns="http://www.w3.org/2000/svg">
<rect y="0.270508" width="40" height="40" rx="6" fill="url(#paint0_linear_1860_15459)"/>
<path d="M29 12.6201C29.2387 12.6201 29.4679 12.715 29.6367 12.8838C29.8055 13.0526 29.9004 13.2818 29.9004 13.5205V26.2705C29.9004 26.7081 29.7264 27.1281 29.417 27.4375C29.1076 27.7469 28.6876 27.9209 28.25 27.9209H11.75C11.3124 27.9209 10.8924 27.7469 10.583 27.4375C10.2736 27.1281 10.0996 26.7081 10.0996 26.2705V13.5205L10.1045 13.4316C10.1249 13.2256 10.2156 13.0315 10.3633 12.8838C10.5321 12.715 10.7613 12.6201 11 12.6201H29ZM20.6084 22.4346C20.4424 22.5868 20.2252 22.6709 20 22.6709C19.7748 22.6709 19.5576 22.5868 19.3916 22.4346L11.9004 15.5664V26.1201H28.0996V15.5664L20.6084 22.4346ZM20 20.5488L26.6855 14.4209H13.3145L20 20.5488Z" fill="white" stroke="white" stroke-width="0.3"/>
<defs>
<linearGradient id="paint0_linear_1860_15459" x1="-5.1937e-10" y1="20.3284" x2="40" y2="20.2126" gradientUnits="userSpaceOnUse">
<stop stop-color="#54BEBD"/>
<stop offset="1" stop-color="#0382A5"/>
</linearGradient>
</defs>
</svg>
