<svg width="24" height="24" viewBox="0 0 24 24" fill="none" xmlns="http://www.w3.org/2000/svg">
<path d="M20.6709 5.57906L16.9209 1.82906C16.8164 1.72462 16.6923 1.64181 16.5557 1.58535C16.4191 1.52889 16.2728 1.49988 16.125 1.5H8.625C8.12772 1.5 7.65081 1.69754 7.29917 2.04918C6.94754 2.40081 6.75 2.87772 6.75 3.375V5.25H5.25C4.75272 5.25 4.27581 5.44754 3.92417 5.79918C3.57254 6.15081 3.375 6.62772 3.375 7.125V20.25C3.375 20.7473 3.57254 21.2242 3.92417 21.5758C4.27581 21.9275 4.75272 22.125 5.25 22.125H15.375C15.8723 22.125 16.3492 21.9275 16.7008 21.5758C17.0525 21.2242 17.25 20.7473 17.25 20.25V18.375H19.125C19.6223 18.375 20.0992 18.1775 20.4508 17.8258C20.8025 17.4742 21 16.9973 21 16.5V6.375C21.0001 6.22722 20.9711 6.08086 20.9147 5.94429C20.8582 5.80772 20.7754 5.68362 20.6709 5.57906ZM15 19.875H5.625V7.5H11.9062L15 10.5938V19.875ZM18.75 16.125H17.25V10.125C17.2501 9.97722 17.2211 9.83086 17.1647 9.69429C17.1082 9.55772 17.0254 9.43362 16.9209 9.32906L13.1709 5.57906C13.0664 5.47462 12.9423 5.39181 12.8057 5.33535C12.6691 5.27889 12.5228 5.24988 12.375 5.25H9V3.75H15.6562L18.75 6.84375V16.125ZM13.5 13.5C13.5 13.7984 13.3815 14.0845 13.1705 14.2955C12.9595 14.5065 12.6734 14.625 12.375 14.625H8.25C7.95163 14.625 7.66548 14.5065 7.4545 14.2955C7.24353 14.0845 7.125 13.7984 7.125 13.5C7.125 13.2016 7.24353 12.9155 7.4545 12.7045C7.66548 12.4935 7.95163 12.375 8.25 12.375H12.375C12.6734 12.375 12.9595 12.4935 13.1705 12.7045C13.3815 12.9155 13.5 13.2016 13.5 13.5ZM13.5 17.25C13.5 17.5484 13.3815 17.8345 13.1705 18.0455C12.9595 18.2565 12.6734 18.375 12.375 18.375H8.25C7.95163 18.375 7.66548 18.2565 7.4545 18.0455C7.24353 17.8345 7.125 17.5484 7.125 17.25C7.125 16.9516 7.24353 16.6655 7.4545 16.4545C7.66548 16.2435 7.95163 16.125 8.25 16.125H12.375C12.6734 16.125 12.9595 16.2435 13.1705 16.4545C13.3815 16.6655 13.5 16.9516 13.5 17.25Z" fill="white"/>
</svg>
