<svg width="24" height="24" viewBox="0 0 24 24" fill="none" xmlns="http://www.w3.org/2000/svg">
<path d="M4 21C3.45 21 2.97933 20.8043 2.588 20.413C2.19667 20.0217 2.00067 19.5507 2 19V5C2 4.45 2.196 3.97933 2.588 3.588C2.98 3.19667 3.45067 3.00067 4 3H20C20.55 3 21.021 3.196 21.413 3.588C21.805 3.98 22.0007 4.45067 22 5V19C22 19.55 21.8043 20.021 21.413 20.413C21.0217 20.805 20.5507 21.0007 20 21H4ZM4 19H20V5H4V19ZM5 17H10V15H5V17ZM14.55 15L19.5 10.05L18.075 8.625L14.55 12.175L13.125 10.75L11.725 12.175L14.55 15ZM5 13H10V11H5V13ZM5 9H10V7H5V9Z" fill="white"/>
</svg>
