<svg width="270" height="80" viewBox="0 0 270 80" fill="none" xmlns="http://www.w3.org/2000/svg">
<rect width="270" height="80" fill="#D5FDFC"/>
<path d="M156.868 46.04V60H154.068V50.92L150.328 60H148.208L144.448 50.92V60H141.648V46.04H144.828L149.268 56.42L153.708 46.04H156.868Z" fill="#26009C"/>
<path d="M164.516 46.04C165.983 46.04 167.27 46.3267 168.376 46.9C169.496 47.4733 170.356 48.2933 170.956 49.36C171.57 50.4133 171.876 51.64 171.876 53.04C171.876 54.44 171.57 55.6667 170.956 56.72C170.356 57.76 169.496 58.5667 168.376 59.14C167.27 59.7133 165.983 60 164.516 60H159.636V46.04H164.516ZM164.416 57.62C165.883 57.62 167.016 57.22 167.816 56.42C168.616 55.62 169.016 54.4933 169.016 53.04C169.016 51.5867 168.616 50.4533 167.816 49.64C167.016 48.8133 165.883 48.4 164.416 48.4H162.436V57.62H164.416Z" fill="#26009C"/>
<path d="M178.792 60.14C177.819 60.14 176.939 59.9733 176.152 59.64C175.379 59.3067 174.765 58.8267 174.312 58.2C173.859 57.5733 173.625 56.8333 173.612 55.98H176.612C176.652 56.5533 176.852 57.0067 177.212 57.34C177.585 57.6733 178.092 57.84 178.732 57.84C179.385 57.84 179.899 57.6867 180.272 57.38C180.645 57.06 180.832 56.6467 180.832 56.14C180.832 55.7267 180.705 55.3867 180.452 55.12C180.199 54.8533 179.879 54.6467 179.492 54.5C179.119 54.34 178.599 54.1667 177.932 53.98C177.025 53.7133 176.285 53.4533 175.712 53.2C175.152 52.9333 174.665 52.54 174.252 52.02C173.852 51.4867 173.652 50.78 173.652 49.9C173.652 49.0733 173.859 48.3533 174.272 47.74C174.685 47.1267 175.265 46.66 176.012 46.34C176.759 46.0067 177.612 45.84 178.572 45.84C180.012 45.84 181.179 46.1933 182.072 46.9C182.979 47.5933 183.479 48.5667 183.572 49.82H180.492C180.465 49.34 180.259 48.9467 179.872 48.64C179.499 48.32 178.999 48.16 178.372 48.16C177.825 48.16 177.385 48.3 177.052 48.58C176.732 48.86 176.572 49.2667 176.572 49.8C176.572 50.1733 176.692 50.4867 176.932 50.74C177.185 50.98 177.492 51.18 177.852 51.34C178.225 51.4867 178.745 51.66 179.412 51.86C180.319 52.1267 181.059 52.3933 181.632 52.66C182.205 52.9267 182.699 53.3267 183.112 53.86C183.525 54.3933 183.732 55.0933 183.732 55.96C183.732 56.7067 183.539 57.4 183.152 58.04C182.765 58.68 182.199 59.1933 181.452 59.58C180.705 59.9533 179.819 60.14 178.792 60.14Z" fill="#26009C"/>
<path d="M86.2679 61L95.856 32.6525C96.6461 30.3165 99.7607 29.8785 101.164 31.9061L109.624 44.1248C110.419 45.2736 112.117 45.2736 112.912 44.1248L121.372 31.9061C122.775 29.8785 125.89 30.3165 126.68 32.6525L136.268 61H129.268L124.255 46.7316C123.681 45.0988 121.445 44.916 120.614 46.434L113.844 58.7968C112.717 60.8541 109.771 60.8808 108.608 58.8442L101.512 46.4266C100.65 44.9189 98.4086 45.15 97.8728 46.8018L93.268 61H86.2679Z" fill="#26009C"/>
<path d="M119.268 27C119.268 31.4183 115.686 35 111.268 35C106.85 35 103.268 31.4183 103.268 27C103.268 22.5817 106.85 19 111.268 19C115.686 19 119.268 22.5817 119.268 27Z" fill="#4DB151"/>
</svg>