<svg width="24" height="24" viewBox="0 0 24 24" fill="none" xmlns="http://www.w3.org/2000/svg">
<path d="M19.1623 4.8375C17.7459 3.42236 15.9418 2.4589 13.978 2.06892C12.0142 1.67895 9.9788 1.87996 8.1292 2.64655C6.2796 3.41314 4.6988 4.71089 3.58663 6.37575C2.47446 8.04061 1.88086 9.99783 1.88086 12C1.88086 14.0022 2.47446 15.9594 3.58663 17.6243C4.6988 19.2891 6.2796 20.5869 8.1292 21.3535C9.9788 22.12 12.0142 22.3211 13.978 21.9311C15.9418 21.5411 17.7459 20.5776 19.1623 19.1625C21.0593 17.2615 22.1247 14.6856 22.1247 12C22.1247 9.31441 21.0593 6.7385 19.1623 4.8375ZM17.5685 17.5706C16.4669 18.6714 15.0637 19.4208 13.5363 19.7241C12.0089 20.0275 10.4258 19.8712 8.98717 19.275C7.54856 18.6787 6.31901 17.6694 5.45397 16.3745C4.58892 15.0796 4.12721 13.5573 4.12721 12C4.12721 10.4427 4.58892 8.92043 5.45397 7.62552C6.31901 6.33062 7.54856 5.32126 8.98717 4.72504C10.4258 4.12882 12.0089 3.97251 13.5363 4.27587C15.0637 4.57924 16.4669 5.32865 17.5685 6.42938C19.0442 7.90762 19.8731 9.91089 19.8735 11.9996C19.8738 14.0883 19.0456 16.0919 17.5704 17.5706H17.5685ZM16.5457 9.79407L14.3435 12L16.5495 14.2059C16.6541 14.3106 16.7371 14.4348 16.7937 14.5716C16.8504 14.7083 16.8795 14.8548 16.8795 15.0028C16.8795 15.1508 16.8504 15.2974 16.7937 15.4341C16.7371 15.5708 16.6541 15.695 16.5495 15.7997C16.4448 15.9043 16.3206 15.9873 16.1838 16.044C16.0471 16.1006 15.9006 16.1298 15.7526 16.1298C15.6046 16.1298 15.458 16.1006 15.3213 16.044C15.1846 15.9873 15.0604 15.9043 14.9557 15.7997L11.9557 12.7997C11.8508 12.6952 11.7676 12.571 11.7108 12.4342C11.654 12.2975 11.6248 12.1509 11.6248 12.0028C11.6248 11.8547 11.654 11.7081 11.7108 11.5714C11.7676 11.4346 11.8508 11.3105 11.9557 11.2059L14.9557 8.20594C15.1671 7.9946 15.4537 7.87586 15.7526 7.87586C16.0515 7.87586 16.3381 7.9946 16.5495 8.20594C16.7608 8.41729 16.8795 8.70393 16.8795 9.00282C16.8795 9.3017 16.7608 9.58835 16.5495 9.79969L16.5457 9.79407ZM11.2957 9.79407L9.09352 12L11.2985 14.2059C11.4032 14.3106 11.4862 14.4348 11.5428 14.5716C11.5994 14.7083 11.6286 14.8548 11.6286 15.0028C11.6286 15.1508 11.5994 15.2974 11.5428 15.4341C11.4862 15.5708 11.4032 15.695 11.2985 15.7997C11.1939 15.9043 11.0696 15.9873 10.9329 16.044C10.7962 16.1006 10.6496 16.1298 10.5016 16.1298C10.3537 16.1298 10.2071 16.1006 10.0704 16.044C9.93365 15.9873 9.80942 15.9043 9.70477 15.7997L6.70477 12.7997C6.59989 12.6952 6.51667 12.571 6.45989 12.4342C6.40311 12.2975 6.37388 12.1509 6.37388 12.0028C6.37388 11.8547 6.40311 11.7081 6.45989 11.5714C6.51667 11.4346 6.59989 11.3105 6.70477 11.2059L9.70477 8.20594C9.80942 8.10129 9.93365 8.01828 10.0704 7.96165C10.2071 7.90501 10.3537 7.87586 10.5016 7.87586C10.6496 7.87586 10.7962 7.90501 10.9329 7.96165C11.0696 8.01828 11.1939 8.10129 11.2985 8.20594C11.4032 8.31059 11.4862 8.43482 11.5428 8.57155C11.5994 8.70828 11.6286 8.85482 11.6286 9.00282C11.6286 9.15081 11.5994 9.29735 11.5428 9.43408C11.4862 9.57081 11.4032 9.69504 11.2985 9.79969L11.2957 9.79407Z" fill="#3393A1"/>
</svg>
