<svg width="24" height="24" viewBox="0 0 24 24" fill="none" xmlns="http://www.w3.org/2000/svg">
<path d="M11 15H8C6.67392 15 5.40215 15.5268 4.46447 16.4645C3.52678 17.4021 3 18.6739 3 20C3 20.5523 3.44772 21 4 21H11.05M18.5 15V13.75M18.5 15C17.7044 15 16.9413 15.3161 16.3787 15.8787C15.8161 16.4413 15.5 17.2044 15.5 18C15.5 18.7956 15.8161 19.5587 16.3787 20.1213C16.9413 20.6839 17.7044 21 18.5 21M18.5 15C19.2956 15 20.0587 15.3161 20.6213 15.8787C21.1839 16.4413 21.5 17.2044 21.5 18C21.5 18.7956 21.1839 19.5587 20.6213 20.1213C20.0587 20.6839 19.2956 21 18.5 21M18.5 21V22.25M15.902 16.5L14.819 15.875M21.098 19.5L22.181 20.125M21.098 16.5L22.181 15.875M15.9 19.5L14.818 20.125M16 7.5C16 8.69347 15.5259 9.83807 14.682 10.682C13.8381 11.5259 12.6935 12 11.5 12C10.3065 12 9.16193 11.5259 8.31802 10.682C7.47411 9.83807 7 8.69347 7 7.5C7 6.30653 7.47411 5.16193 8.31802 4.31802C9.16193 3.47411 10.3065 3 11.5 3C12.6935 3 13.8381 3.47411 14.682 4.31802C15.5259 5.16193 16 6.30653 16 7.5Z" stroke="white" stroke-width="2.2" stroke-linecap="square"/>
</svg>
