<svg width="15" height="15" viewBox="0 0 16 20" fill="none" xmlns="http://www.w3.org/2000/svg">
<path d="M8 5V8M8 11H8.01M11 15V16C11 16.9319 11 17.3978 10.8478 17.7654C10.6448 18.2554 10.2554 18.6448 9.76537 18.8478C9.39783 19 8.93188 19 8 19C7.06812 19 6.60218 19 6.23463 18.8478C5.74458 18.6448 5.35523 18.2554 5.15224 17.7654C5 17.3978 5 16.9319 5 16V15M1 8.24138C1 4.24208 4.13401 1 8 1C11.866 1 15 4.24208 15 8.24138C15 11.2108 13.2723 13.8826 10.8 15H5.2C2.72773 13.8826 1 11.2108 1 8.24138Z" stroke="#3393A1" stroke-width="2" stroke-linecap="round" stroke-linejoin="round"/>
</svg>