<svg width="40" height="40" viewBox="0 0 40 40" fill="none" xmlns="http://www.w3.org/2000/svg">
<rect width="40" height="40" rx="6" fill="url(#paint0_linear_2695_22421)"/>
<path d="M29.375 20C29.375 20.2984 29.2565 20.5845 29.0455 20.7955C28.8345 21.0065 28.5484 21.125 28.25 21.125H21.125V28.25C21.125 28.5484 21.0065 28.8345 20.7955 29.0455C20.5845 29.2565 20.2984 29.375 20 29.375C19.7016 29.375 19.4155 29.2565 19.2045 29.0455C18.9935 28.8345 18.875 28.5484 18.875 28.25V21.125H11.75C11.4516 21.125 11.1655 21.0065 10.9545 20.7955C10.7435 20.5845 10.625 20.2984 10.625 20C10.625 19.7016 10.7435 19.4155 10.9545 19.2045C11.1655 18.9935 11.4516 18.875 11.75 18.875H18.875V11.75C18.875 11.4516 18.9935 11.1655 19.2045 10.9545C19.4155 10.7435 19.7016 10.625 20 10.625C20.2984 10.625 20.5845 10.7435 20.7955 10.9545C21.0065 11.1655 21.125 11.4516 21.125 11.75V18.875H28.25C28.5484 18.875 28.8345 18.9935 29.0455 19.2045C29.2565 19.4155 29.375 19.7016 29.375 20Z" fill="white"/>
<defs>
<linearGradient id="paint0_linear_2695_22421" x1="-5.1937e-10" y1="20.0579" x2="40" y2="19.9421" gradientUnits="userSpaceOnUse">
<stop stop-color="#54BEBD"/>
<stop offset="1" stop-color="#0382A5"/>
</linearGradient>
</defs>
</svg>
