<svg width="24" height="24" viewBox="0 0 24 24" fill="none" xmlns="http://www.w3.org/2000/svg">
<path d="M20.625 8.99905C20.6258 7.5531 20.2631 6.13015 19.5702 4.86103C18.8773 3.59191 17.8765 2.51736 16.6597 1.73618C15.4429 0.955005 14.0493 0.492268 12.6069 0.390522C11.1645 0.288776 9.71975 0.551286 8.40536 1.15391C7.09097 1.75654 5.94919 2.67995 5.08498 3.83923C4.22078 4.9985 3.6619 6.35645 3.45973 7.78819C3.25755 9.21994 3.41858 10.6795 3.92799 12.0328C4.43741 13.386 5.27887 14.5895 6.375 15.5325V22.4991C6.37502 22.6908 6.42407 22.8794 6.51749 23.0469C6.61091 23.2144 6.7456 23.3552 6.90876 23.456C7.07192 23.5568 7.25815 23.6142 7.44974 23.6228C7.64133 23.6314 7.83193 23.5908 8.00344 23.505L12 21.5072L15.9975 23.505C16.169 23.5906 16.3595 23.631 16.5509 23.6223C16.7424 23.6136 16.9285 23.5562 17.0915 23.4554C17.2545 23.3546 17.3891 23.2139 17.4825 23.0465C17.5758 22.8792 17.6249 22.6907 17.625 22.4991V15.5325C18.5662 14.7239 19.3216 13.7215 19.8394 12.5938C20.3572 11.4661 20.6252 10.2399 20.625 8.99905ZM5.625 8.99905C5.625 7.7382 5.99889 6.50566 6.69938 5.45729C7.39988 4.40893 8.39551 3.59183 9.56039 3.10932C10.7253 2.62681 12.0071 2.50057 13.2437 2.74655C14.4803 2.99253 15.6162 3.59969 16.5078 4.49125C17.3994 5.38281 18.0065 6.51872 18.2525 7.75535C18.4985 8.99198 18.3722 10.2738 17.8897 11.4387C17.4072 12.6035 16.5901 13.5992 15.5418 14.2997C14.4934 15.0002 13.2609 15.3741 12 15.3741C10.3098 15.3723 8.68928 14.7001 7.49411 13.5049C6.29895 12.3098 5.62674 10.6893 5.625 8.99905ZM15.375 20.6794L12.5025 19.2431C12.3462 19.1649 12.1738 19.1242 11.9991 19.1242C11.8243 19.1242 11.6519 19.1649 11.4956 19.2431L8.625 20.6784V16.9359C9.69232 17.3898 10.8402 17.6237 12 17.6237C13.1598 17.6237 14.3077 17.3898 15.375 16.9359V20.6794Z" fill="white"/>
<g clip-path="url(#clip0_7211_843)">
<path d="M12 4.68164C13.145 4.68291 14.2431 5.13764 15.0527 5.94727C15.8624 6.75689 16.3171 7.85502 16.3184 9L16.3066 9.31934C16.2516 10.061 16.006 10.778 15.5908 11.3994C15.1163 12.1096 14.4415 12.6634 13.6523 12.9902C12.8633 13.317 11.9948 13.402 11.1572 13.2354C10.3196 13.0687 9.55021 12.6576 8.94629 12.0537C8.34237 11.4498 7.93133 10.6804 7.76465 9.84277C7.59804 9.00516 7.68303 8.1367 8.00977 7.34766C8.33663 6.55853 8.89041 5.88373 9.60059 5.40918C10.3108 4.93463 11.1458 4.68164 12 4.68164ZM13.2178 6.06055C12.6365 5.81977 11.996 5.75713 11.3789 5.87988C10.762 6.00269 10.1958 6.30618 9.75098 6.75098C9.30618 7.19578 9.00269 7.76198 8.87988 8.37891C8.75713 8.99601 8.81977 9.63648 9.06055 10.2178C9.30134 10.799 9.70932 11.296 10.2324 11.6455C10.7556 11.995 11.3708 12.1816 12 12.1816L12.1572 12.1768C12.9434 12.1371 13.6888 11.8073 14.248 11.248C14.8444 10.6516 15.1807 9.84343 15.1816 9L15.1729 8.76465C15.1323 8.21835 14.9513 7.69011 14.6455 7.23242C14.296 6.70932 13.799 6.30134 13.2178 6.06055ZM13.5625 7.49316C13.6371 7.4933 13.7114 7.50751 13.7803 7.53613C13.8492 7.56485 13.9121 7.60726 13.9648 7.66016L14.0361 7.74609C14.0569 7.77703 14.0745 7.81018 14.0889 7.84473C14.1175 7.91372 14.1318 7.9878 14.1318 8.0625C14.1318 8.13736 14.1176 8.21212 14.0889 8.28125C14.0745 8.31582 14.0569 8.34894 14.0361 8.37988L13.9648 8.46582L11.7773 10.6533C11.7246 10.7062 11.6617 10.7477 11.5928 10.7764C11.5238 10.805 11.4497 10.8203 11.375 10.8203C11.3001 10.8203 11.2254 10.8051 11.1562 10.7764C11.0873 10.7477 11.0244 10.7062 10.9717 10.6533L10.0342 9.71582C9.9814 9.66304 9.93975 9.60019 9.91113 9.53125C9.88251 9.46215 9.86719 9.3873 9.86719 9.3125C9.86724 9.23784 9.88256 9.16371 9.91113 9.09473C9.93974 9.02577 9.9814 8.96296 10.0342 8.91016C10.0869 8.85739 10.1498 8.81573 10.2188 8.78711C10.2879 8.75849 10.3627 8.74316 10.4375 8.74316C10.5122 8.74322 10.5863 8.75854 10.6553 8.78711C10.7242 8.81573 10.787 8.85735 10.8398 8.91016L11.374 9.44434L13.1602 7.65918L13.2461 7.58789C13.277 7.5673 13.3103 7.55038 13.3447 7.53613C13.4137 7.50769 13.4879 7.49309 13.5625 7.49316Z" fill="white" stroke="white" stroke-width="0.2"/>
</g>
<defs>
<clipPath id="clip0_7211_843">
<rect width="10" height="10" fill="white" transform="translate(7 4)"/>
</clipPath>
</defs>
</svg>
