<svg width="14" height="19" viewBox="0 0 16 21" fill="none" xmlns="http://www.w3.org/2000/svg">
<path d="M12 4.99983V3.28415C12 2.51563 12 2.13137 11.8387 1.88297C11.6976 1.66563 11.4776 1.51156 11.2252 1.45321C10.9366 1.38653 10.5755 1.51785 9.85321 1.78048L2.57982 4.42536C2.01064 4.63233 1.72605 4.73582 1.51615 4.91821C1.33073 5.07932 1.18772 5.28349 1.09968 5.5128C1 5.7724 1 6.07522 1 6.68086V10.9998M5 15.9998H11M5 12.4998H11M5 8.99983H11M4.2 19.9998H11.8C12.9201 19.9998 13.4802 19.9998 13.908 19.7818C14.2843 19.5901 14.5903 19.2841 14.782 18.9078C15 18.48 15 17.9199 15 16.7998V8.19983C15 7.07973 15 6.51968 14.782 6.09185C14.5903 5.71553 14.2843 5.40957 13.908 5.21782C13.4802 4.99983 12.9201 4.99983 11.8 4.99983H4.2C3.0799 4.99983 2.51984 4.99983 2.09202 5.21782C1.71569 5.40957 1.40973 5.71553 1.21799 6.09185C1 6.51968 1 7.07973 1 8.19983V16.7998C1 17.9199 1 18.48 1.21799 18.9078C1.40973 19.2841 1.71569 19.5901 2.09202 19.7818C2.51984 19.9998 3.07989 19.9998 4.2 19.9998Z" stroke="#4E4B66" stroke-width="2" stroke-linecap="round" stroke-linejoin="round"/>
</svg>