<svg width="25" height="25" viewBox="0 0 41 40" fill="none" xmlns="http://www.w3.org/2000/svg">
<rect x="0.5" width="40" height="40" rx="20" fill="#E5FCFF"/>
<path d="M29.4375 13.9063H21.0474L18.4068 10.9315C18.2156 10.7165 17.9809 10.5445 17.7183 10.4271C17.4557 10.3096 17.1711 10.2492 16.8834 10.25H11.5625C11.0238 10.25 10.5071 10.464 10.1262 10.8449C9.74526 11.2259 9.53125 11.7425 9.53125 12.2813V27.3755C9.53206 27.8973 9.73969 28.3974 10.1086 28.7664C10.4776 29.1353 10.9778 29.343 11.4995 29.3438H29.5279C30.0425 29.3432 30.5358 29.1386 30.8997 28.7747C31.2636 28.4108 31.4682 27.9175 31.4688 27.4029V15.9375C31.4688 15.3988 31.2547 14.8821 30.8738 14.5012C30.4929 14.1203 29.9762 13.9063 29.4375 13.9063ZM11.9688 12.6875H16.7026L17.7863 13.9063H11.9688V12.6875ZM29.0312 26.9063H11.9688V16.3438H29.0312V26.9063Z" fill="#3393A1"/>
</svg>