<svg width="22" height="22" viewBox="0 0 22 22" fill="none" xmlns="http://www.w3.org/2000/svg">
<path d="M11 8V11.75M20 11C20 12.1819 19.7672 13.3522 19.3149 14.4442C18.8626 15.5361 18.1997 16.5282 17.364 17.364C16.5282 18.1997 15.5361 18.8626 14.4442 19.3149C13.3522 19.7672 12.1819 20 11 20C9.8181 20 8.64778 19.7672 7.55585 19.3149C6.46392 18.8626 5.47177 18.1997 4.63604 17.364C3.80031 16.5282 3.13738 15.5361 2.68508 14.4442C2.23279 13.3522 2 12.1819 2 11C2 8.61305 2.94821 6.32387 4.63604 4.63604C6.32387 2.94821 8.61305 2 11 2C13.3869 2 15.6761 2.94821 17.364 4.63604C19.0518 6.32387 20 8.61305 20 11ZM11 14.75H11.008V14.758H11V14.75Z" stroke="#ffffff" stroke-width="2.2" stroke-linecap="round" stroke-linejoin="round"/>
</svg>