<svg width="25" height="25" viewBox="0 0 40 40" fill="none" xmlns="http://www.w3.org/2000/svg">
<rect width="40" height="40" rx="20" fill="#E5FCFF"/>
<path d="M28.2959 15.455L23.0459 10.205C22.9415 10.1004 22.8174 10.0174 22.6808 9.96078C22.5442 9.90416 22.3978 9.87501 22.25 9.875H13.25C12.7527 9.875 12.2758 10.0725 11.9242 10.4242C11.5725 10.7758 11.375 11.2527 11.375 11.75V28.25C11.375 28.7473 11.5725 29.2242 11.9242 29.5758C12.2758 29.9275 12.7527 30.125 13.25 30.125H26.75C27.2473 30.125 27.7242 29.9275 28.0758 29.5758C28.4275 29.2242 28.625 28.7473 28.625 28.25V16.25C28.625 15.9519 28.5066 15.6659 28.2959 15.455ZM23 13.3438L25.1562 15.5H23V13.3438ZM13.625 27.875V12.125H20.75V16.625C20.75 16.9234 20.8685 17.2095 21.0795 17.4205C21.2905 17.6315 21.5766 17.75 21.875 17.75H26.375V27.875H13.625ZM24.125 20.375C24.125 20.6734 24.0065 20.9595 23.7955 21.1705C23.5845 21.3815 23.2984 21.5 23 21.5H17C16.7016 21.5 16.4155 21.3815 16.2045 21.1705C15.9935 20.9595 15.875 20.6734 15.875 20.375C15.875 20.0766 15.9935 19.7905 16.2045 19.5795C16.4155 19.3685 16.7016 19.25 17 19.25H23C23.2984 19.25 23.5845 19.3685 23.7955 19.5795C24.0065 19.7905 24.125 20.0766 24.125 20.375ZM24.125 24.125C24.125 24.4234 24.0065 24.7095 23.7955 24.9205C23.5845 25.1315 23.2984 25.25 23 25.25H17C16.7016 25.25 16.4155 25.1315 16.2045 24.9205C15.9935 24.7095 15.875 24.4234 15.875 24.125C15.875 23.8266 15.9935 23.5405 16.2045 23.3295C16.4155 23.1185 16.7016 23 17 23H23C23.2984 23 23.5845 23.1185 23.7955 23.3295C24.0065 23.5405 24.125 23.8266 24.125 24.125Z" fill="#3393A1"/>
</svg>