<svg width="16" height="16" viewBox="0 0 16 16" fill="none" xmlns="http://www.w3.org/2000/svg">
<path d="M5.33341 7.99992H10.6667V9.33325H5.33341V7.99992ZM6.66675 13.3333H4.00008V2.66659H8.66675V5.99992H12.0001V8.06659L13.3334 6.73325V5.33325L9.33342 1.33325H4.00008C3.64646 1.33325 3.30732 1.47373 3.05727 1.72378C2.80722 1.97382 2.66675 2.31296 2.66675 2.66659V13.3333C2.66675 13.6869 2.80722 14.026 3.05727 14.2761C3.30732 14.5261 3.64646 14.6666 4.00008 14.6666H6.66675V13.3333ZM5.33341 11.9999H8.06675L8.66675 11.3999V10.6666H5.33341V11.9999ZM13.4667 8.66659C13.5334 8.66659 13.6667 8.73325 13.7334 8.79992L14.6001 9.66659C14.7334 9.79992 14.7334 10.0666 14.6001 10.1999L13.9334 10.8666L12.5334 9.46659L13.2001 8.79992C13.2667 8.73325 13.3334 8.66659 13.4667 8.66659ZM13.4667 11.2666L9.40008 15.3333H8.00008V13.9333L12.0667 9.86659L13.4667 11.2666Z" fill="#A17C4E"/>
</svg>
