<svg width="40" height="40" viewBox="0 0 40 40" fill="none" xmlns="http://www.w3.org/2000/svg">
<rect width="40" height="40" rx="6" fill="url(#paint0_linear_4462_40836)"/>
<path d="M21 11H17.8C16.1198 11 15.2798 11 14.638 11.327C14.0735 11.6146 13.6146 12.0735 13.327 12.638C13 13.2798 13 14.1198 13 15.8V24.2C13 25.8802 13 26.7202 13.327 27.362C13.6146 27.9265 14.0735 28.3854 14.638 28.673C15.2798 29 16.1198 29 17.8 29H18M21 11L27 17M21 11V13.8C21 14.9201 21 15.4802 21.218 15.908C21.4097 16.2843 21.7157 16.5903 22.092 16.782C22.5198 17 23.0799 17 24.2 17H27M27 17V18M17 25H19.5M17 21H22M17 17H18M22 29L24.025 28.595C24.2015 28.5597 24.2898 28.542 24.3721 28.5097C24.4452 28.4811 24.5147 28.4439 24.579 28.399C24.6516 28.3484 24.7152 28.2848 24.8426 28.1574L29 24C29.5523 23.4477 29.5523 22.5523 29 22C28.4477 21.4477 27.5523 21.4477 27 22L22.8426 26.1574C22.7152 26.2848 22.6516 26.3484 22.601 26.421C22.5561 26.4853 22.5189 26.5548 22.4903 26.6279C22.458 26.7102 22.4403 26.7985 22.405 26.975L22 29Z" stroke="white" stroke-width="2" stroke-linecap="round" stroke-linejoin="round"/>
<defs>
<linearGradient id="paint0_linear_4462_40836" x1="-5.1937e-10" y1="20.0579" x2="40" y2="19.9421" gradientUnits="userSpaceOnUse">
<stop stop-color="#54BEBD"/>
<stop offset="1" stop-color="#0382A5"/>
</linearGradient>
</defs>
</svg>
