<svg width="24" height="24" viewBox="0 0 24 24" fill="none" xmlns="http://www.w3.org/2000/svg">
<path d="M20.8256 6.48469L17.5153 3.17438C17.3417 2.99968 17.1351 2.86116 16.9076 2.76686C16.68 2.67255 16.436 2.62434 16.1897 2.62501H4.5C4.00272 2.62501 3.52581 2.82255 3.17417 3.17418C2.82254 3.52581 2.625 4.00273 2.625 4.50001V19.5C2.625 19.9973 2.82254 20.4742 3.17417 20.8258C3.52581 21.1775 4.00272 21.375 4.5 21.375H19.5C19.9973 21.375 20.4742 21.1775 20.8258 20.8258C21.1775 20.4742 21.375 19.9973 21.375 19.5V7.81032C21.3757 7.564 21.3275 7.32 21.2332 7.09246C21.1388 6.86491 21.0003 6.65833 20.8256 6.48469ZM15.375 19.125H8.625V15H15.375V19.125ZM19.125 19.125H17.625V14.625C17.625 14.1277 17.4275 13.6508 17.0758 13.2992C16.7242 12.9476 16.2473 12.75 15.75 12.75H8.25C7.75272 12.75 7.27581 12.9476 6.92417 13.2992C6.57254 13.6508 6.375 14.1277 6.375 14.625V19.125H4.875V4.87501H16.0312L19.125 7.96876V19.125ZM15.375 7.87501C15.375 8.17338 15.2565 8.45952 15.0455 8.6705C14.8345 8.88148 14.5484 9.00001 14.25 9.00001H9C8.70163 9.00001 8.41548 8.88148 8.2045 8.6705C7.99353 8.45952 7.875 8.17338 7.875 7.87501C7.875 7.57664 7.99353 7.29049 8.2045 7.07951C8.41548 6.86853 8.70163 6.75001 9 6.75001H14.25C14.5484 6.75001 14.8345 6.86853 15.0455 7.07951C15.2565 7.29049 15.375 7.57664 15.375 7.87501Z" fill="white"/>
</svg>
