<svg width="25" height="25" viewBox="0 0 40 40" fill="none" xmlns="http://www.w3.org/2000/svg">
<rect width="40" height="40" rx="20" fill="#E5FCFF"/>
<path d="M10.625 14C10.625 13.7016 10.7435 13.4155 10.9545 13.2045C11.1655 12.9935 11.4516 12.875 11.75 12.875H28.25C28.5484 12.875 28.8345 12.9935 29.0455 13.2045C29.2565 13.4155 29.375 13.7016 29.375 14C29.375 14.2984 29.2565 14.5845 29.0455 14.7955C28.8345 15.0065 28.5484 15.125 28.25 15.125H11.75C11.4516 15.125 11.1655 15.0065 10.9545 14.7955C10.7435 14.5845 10.625 14.2984 10.625 14ZM11.75 21.125H17.75C18.0484 21.125 18.3345 21.0065 18.5455 20.7955C18.7565 20.5845 18.875 20.2984 18.875 20C18.875 19.7016 18.7565 19.4155 18.5455 19.2045C18.3345 18.9935 18.0484 18.875 17.75 18.875H11.75C11.4516 18.875 11.1655 18.9935 10.9545 19.2045C10.7435 19.4155 10.625 19.7016 10.625 20C10.625 20.2984 10.7435 20.5845 10.9545 20.7955C11.1655 21.0065 11.4516 21.125 11.75 21.125ZM19.25 24.875H11.75C11.4516 24.875 11.1655 24.9935 10.9545 25.2045C10.7435 25.4155 10.625 25.7016 10.625 26C10.625 26.2984 10.7435 26.5845 10.9545 26.7955C11.1655 27.0065 11.4516 27.125 11.75 27.125H19.25C19.5484 27.125 19.8345 27.0065 20.0455 26.7955C20.2565 26.5845 20.375 26.2984 20.375 26C20.375 25.7016 20.2565 25.4155 20.0455 25.2045C19.8345 24.9935 19.5484 24.875 19.25 24.875ZM30.5459 26.7959C30.4414 26.9008 30.3172 26.984 30.1805 27.0408C30.0437 27.0976 29.8971 27.1268 29.7491 27.1268C29.601 27.1268 29.4544 27.0976 29.3176 27.0408C29.1809 26.984 29.0567 26.9008 28.9522 26.7959L27.2572 25.1009C26.3878 25.5858 25.3723 25.7398 24.3982 25.5347C23.4241 25.3296 22.5571 24.7791 21.957 23.9849C21.3569 23.1906 21.0643 22.2062 21.1331 21.2131C21.2019 20.22 21.6275 19.2853 22.3314 18.5814C23.0353 17.8775 23.97 17.4519 24.9631 17.3831C25.9562 17.3143 26.9406 17.6069 27.7349 18.207C28.5291 18.8071 29.0796 19.6741 29.2847 20.6482C29.4898 21.6223 29.3358 22.6378 28.8509 23.5072L30.5459 25.2013C30.651 25.3058 30.7343 25.43 30.7912 25.5669C30.848 25.7037 30.8773 25.8504 30.8773 25.9986C30.8773 26.1468 30.848 26.2935 30.7912 26.4303C30.7343 26.5672 30.651 26.6914 30.5459 26.7959ZM25.25 23.375C25.6208 23.375 25.9834 23.265 26.2917 23.059C26.6 22.853 26.8404 22.5601 26.9823 22.2175C27.1242 21.8749 27.1613 21.4979 27.089 21.1342C27.0166 20.7705 26.838 20.4364 26.5758 20.1742C26.3136 19.912 25.9795 19.7334 25.6158 19.661C25.2521 19.5887 24.8751 19.6258 24.5325 19.7677C24.1899 19.9096 23.897 20.15 23.691 20.4583C23.485 20.7666 23.375 21.1292 23.375 21.5C23.375 21.7462 23.4235 21.99 23.5177 22.2175C23.612 22.445 23.7501 22.6517 23.9242 22.8258C24.0983 22.9999 24.305 23.138 24.5325 23.2323C24.76 23.3265 25.0038 23.375 25.25 23.375Z" fill="#3393A1"/>
</svg>