<svg width="18" height="18" viewBox="0 0 24 24" fill="none" xmlns="http://www.w3.org/2000/svg">
<path d="M22.1249 10.5C22.1232 12.1902 21.451 13.8107 20.2558 15.0059C19.0606 16.2011 17.4401 16.8733 15.7499 16.875H5.71866L8.29866 19.4541C8.40331 19.5587 8.48632 19.6829 8.54295 19.8197C8.59959 19.9564 8.62874 20.1029 8.62874 20.2509C8.62874 20.3989 8.59959 20.5455 8.54295 20.6822C8.48632 20.8189 8.40331 20.9432 8.29866 21.0478C8.19401 21.1525 8.06978 21.2355 7.93305 21.2921C7.79632 21.3487 7.64978 21.3779 7.50179 21.3779C7.35379 21.3779 7.20725 21.3487 7.07052 21.2921C6.93379 21.2355 6.80956 21.1525 6.70491 21.0478L2.20491 16.5478C2.10003 16.4433 2.01681 16.3191 1.96003 16.1824C1.90325 16.0456 1.87402 15.899 1.87402 15.7509C1.87402 15.6029 1.90325 15.4563 1.96003 15.3195C2.01681 15.1828 2.10003 15.0586 2.20491 14.9541L6.70491 10.4541C6.80956 10.3494 6.93379 10.2664 7.07052 10.2098C7.20725 10.1531 7.35379 10.124 7.50179 10.124C7.64978 10.124 7.79632 10.1531 7.93305 10.2098C8.06978 10.2664 8.19401 10.3494 8.29866 10.4541C8.40331 10.5587 8.48632 10.6829 8.54295 10.8197C8.59959 10.9564 8.62874 11.1029 8.62874 11.2509C8.62874 11.3989 8.59959 11.5455 8.54295 11.6822C8.48632 11.8189 8.40331 11.9432 8.29866 12.0478L5.71866 14.625H15.7499C16.8439 14.625 17.8931 14.1904 18.6667 13.4168C19.4403 12.6432 19.8749 11.594 19.8749 10.5C19.8749 9.40598 19.4403 8.35677 18.6667 7.58318C17.8931 6.8096 16.8439 6.375 15.7499 6.375H7.49991C7.20154 6.375 6.91539 6.25647 6.70442 6.0455C6.49344 5.83452 6.37491 5.54837 6.37491 5.25C6.37491 4.95163 6.49344 4.66548 6.70442 4.4545C6.91539 4.24353 7.20154 4.125 7.49991 4.125H15.7499C17.4401 4.12674 19.0606 4.79895 20.2558 5.99411C21.451 7.18928 22.1232 8.80978 22.1249 10.5Z" fill="#AC0FC8"/>
</svg>