<svg width="22" height="18" viewBox="0 0 22 18" fill="none" xmlns="http://www.w3.org/2000/svg">
<path d="M21.125 11.5C21.1233 13.1903 20.4511 14.8108 19.2559 16.0059C18.0607 17.2011 16.4402 17.8733 14.75 17.875H6.5C6.20163 17.875 5.91548 17.7565 5.70451 17.5455C5.49353 17.3346 5.375 17.0484 5.375 16.75C5.375 16.4517 5.49353 16.1655 5.70451 15.9545C5.91548 15.7436 6.20163 15.625 6.5 15.625H14.75C15.844 15.625 16.8932 15.1904 17.6668 14.4169C18.4404 13.6433 18.875 12.5941 18.875 11.5C18.875 10.406 18.4404 9.35681 17.6668 8.58322C16.8932 7.80963 15.844 7.37504 14.75 7.37504H4.71875L7.29875 9.9541C7.5101 10.1654 7.62883 10.4521 7.62883 10.751C7.62883 11.0499 7.5101 11.3365 7.29875 11.5478C7.08741 11.7592 6.80076 11.8779 6.50188 11.8779C6.20299 11.8779 5.91635 11.7592 5.705 11.5478L1.205 7.04785C1.10012 6.94333 1.01691 6.81914 0.960124 6.6824C0.903343 6.54565 0.874115 6.39904 0.874115 6.25098C0.874115 6.10291 0.903343 5.9563 0.960124 5.81955C1.01691 5.68281 1.10012 5.55862 1.205 5.4541L5.705 0.9541C5.91635 0.742755 6.20299 0.624023 6.50188 0.624023C6.80076 0.624023 7.08741 0.742755 7.29875 0.9541C7.5101 1.16544 7.62883 1.45209 7.62883 1.75097C7.62883 2.04986 7.5101 2.33651 7.29875 2.54785L4.71875 5.12504H14.75C16.4401 5.12702 18.0605 5.79931 19.2556 6.99442C20.4507 8.18954 21.123 9.80989 21.125 11.5Z" fill="white"/>
</svg>
