<svg width="24" height="24" viewBox="0 0 24 24" fill="none" xmlns="http://www.w3.org/2000/svg">
<path d="M16.875 6.75V5.625H8.34374L12.8812 11.2969C13.041 11.4964 13.128 11.7444 13.128 12C13.128 12.2556 13.041 12.5036 12.8812 12.7031L8.34374 18.375H16.875V17.25C16.875 16.9516 16.9935 16.6655 17.2045 16.4545C17.4155 16.2435 17.7016 16.125 18 16.125C18.2984 16.125 18.5845 16.2435 18.7955 16.4545C19.0065 16.6655 19.125 16.9516 19.125 17.25V19.5C19.125 19.7984 19.0065 20.0845 18.7955 20.2955C18.5845 20.5065 18.2984 20.625 18 20.625H5.99999C5.78802 20.625 5.58035 20.5652 5.40091 20.4524C5.22147 20.3395 5.07755 20.1783 4.98575 19.9872C4.89394 19.7962 4.85798 19.5831 4.88201 19.3725C4.90603 19.1619 4.98907 18.9623 5.12155 18.7969L10.5591 12L5.12155 5.20312C4.98907 5.03766 4.90603 4.83813 4.88201 4.62752C4.85798 4.41692 4.89394 4.20381 4.98575 4.01275C5.07755 3.8217 5.22147 3.66046 5.40091 3.54763C5.58035 3.4348 5.78802 3.37496 5.99999 3.375H18C18.2984 3.375 18.5845 3.49353 18.7955 3.7045C19.0065 3.91548 19.125 4.20163 19.125 4.5V6.75C19.125 7.04837 19.0065 7.33452 18.7955 7.5455C18.5845 7.75647 18.2984 7.875 18 7.875C17.7016 7.875 17.4155 7.75647 17.2045 7.5455C16.9935 7.33452 16.875 7.04837 16.875 6.75Z" fill="#1B0D9C"/>
</svg>
