<svg width="24" height="24" viewBox="0 0 24 24" fill="none" xmlns="http://www.w3.org/2000/svg">
<path d="M4.8375 19.1623C3.42236 17.7459 2.4589 15.9418 2.06892 13.978C1.67895 12.0142 1.87996 9.9788 2.64655 8.1292C3.41314 6.2796 4.71089 4.6988 6.37575 3.58663C8.04061 2.47446 9.99783 1.88086 12 1.88086C14.0022 1.88086 15.9594 2.47446 17.6243 3.58663C19.2891 4.6988 20.5869 6.2796 21.3535 8.1292C22.12 9.9788 22.3211 12.0142 21.9311 13.978C21.5411 15.9418 20.5776 17.7459 19.1625 19.1623C17.2615 21.0593 14.6856 22.1247 12 22.1247C9.31441 22.1247 6.7385 21.0593 4.8375 19.1623ZM17.5706 17.5685C18.6714 16.4669 19.4208 15.0637 19.7241 13.5363C20.0275 12.0089 19.8712 10.4258 19.275 8.98717C18.6787 7.54856 17.6694 6.31901 16.3745 5.45397C15.0796 4.58892 13.5573 4.12721 12 4.12721C10.4427 4.12721 8.92043 4.58892 7.62552 5.45397C6.33062 6.31901 5.32126 7.54856 4.72504 8.98717C4.12882 10.4258 3.97251 12.0089 4.27587 13.5363C4.57924 15.0637 5.32865 16.4669 6.42938 17.5685C7.90762 19.0442 9.91089 19.8731 11.9996 19.8735C14.0883 19.8738 16.0919 19.0456 17.5706 17.5704V17.5685ZM9.79407 16.5457L12 14.3435L14.2059 16.5495C14.3106 16.6541 14.4348 16.7371 14.5716 16.7937C14.7083 16.8504 14.8548 16.8795 15.0028 16.8795C15.1508 16.8795 15.2974 16.8504 15.4341 16.7937C15.5708 16.7371 15.695 16.6541 15.7997 16.5495C15.9043 16.4448 15.9873 16.3206 16.044 16.1838C16.1006 16.0471 16.1298 15.9006 16.1298 15.7526C16.1298 15.6046 16.1006 15.458 16.044 15.3213C15.9873 15.1846 15.9043 15.0604 15.7997 14.9557L12.7997 11.9557C12.6952 11.8508 12.571 11.7676 12.4342 11.7108C12.2975 11.654 12.1509 11.6248 12.0028 11.6248C11.8547 11.6248 11.7081 11.654 11.5714 11.7108C11.4346 11.7676 11.3105 11.8508 11.2059 11.9557L8.20594 14.9557C7.9946 15.1671 7.87586 15.4537 7.87586 15.7526C7.87586 16.0515 7.9946 16.3381 8.20594 16.5495C8.41729 16.7608 8.70393 16.8795 9.00282 16.8795C9.3017 16.8795 9.58835 16.7608 9.79969 16.5495L9.79407 16.5457ZM9.79407 11.2957L12 9.09352L14.2059 11.2985C14.3106 11.4032 14.4348 11.4862 14.5716 11.5428C14.7083 11.5994 14.8548 11.6286 15.0028 11.6286C15.1508 11.6286 15.2974 11.5994 15.4341 11.5428C15.5708 11.4862 15.695 11.4032 15.7997 11.2985C15.9043 11.1939 15.9873 11.0696 16.044 10.9329C16.1006 10.7962 16.1298 10.6496 16.1298 10.5016C16.1298 10.3537 16.1006 10.2071 16.044 10.0704C15.9873 9.93365 15.9043 9.80942 15.7997 9.70477L12.7997 6.70477C12.6952 6.59989 12.571 6.51667 12.4342 6.45989C12.2975 6.40311 12.1509 6.37388 12.0028 6.37388C11.8547 6.37388 11.7081 6.40311 11.5714 6.45989C11.4346 6.51667 11.3105 6.59989 11.2059 6.70477L8.20594 9.70477C8.10129 9.80942 8.01828 9.93365 7.96165 10.0704C7.90501 10.2071 7.87586 10.3537 7.87586 10.5016C7.87586 10.6496 7.90501 10.7962 7.96165 10.9329C8.01828 11.0696 8.10129 11.1939 8.20594 11.2985C8.31059 11.4032 8.43482 11.4862 8.57155 11.5428C8.70828 11.5994 8.85482 11.6286 9.00282 11.6286C9.15081 11.6286 9.29735 11.5994 9.43408 11.5428C9.57081 11.4862 9.69504 11.4032 9.79969 11.2985L9.79407 11.2957Z" fill="#3393A1"/>
</svg>
