<svg width="16" height="22" viewBox="0 0 18 22" fill="none" xmlns="http://www.w3.org/2000/svg">
<path d="M13.125 14.3748C13.125 14.6732 13.0065 14.9593 12.7955 15.1703C12.5845 15.3813 12.2984 15.4998 12 15.4998H6C5.70163 15.4998 5.41548 15.3813 5.2045 15.1703C4.99353 14.9593 4.875 14.6732 4.875 14.3748C4.875 14.0764 4.99353 13.7903 5.2045 13.5793C5.41548 13.3683 5.70163 13.2498 6 13.2498H12C12.2984 13.2498 12.5845 13.3683 12.7955 13.5793C13.0065 13.7903 13.125 14.0764 13.125 14.3748ZM12 9.49979H6C5.70163 9.49979 5.41548 9.61832 5.2045 9.8293C4.99353 10.0403 4.875 10.3264 4.875 10.6248C4.875 10.9232 4.99353 11.2093 5.2045 11.4203C5.41548 11.6313 5.70163 11.7498 6 11.7498H12C12.2984 11.7498 12.5845 11.6313 12.7955 11.4203C13.0065 11.2093 13.125 10.9232 13.125 10.6248C13.125 10.3264 13.0065 10.0403 12.7955 9.8293C12.5845 9.61832 12.2984 9.49979 12 9.49979ZM17.625 3.49979V19.2498C17.625 19.7471 17.4275 20.224 17.0758 20.5756C16.7242 20.9272 16.2473 21.1248 15.75 21.1248H2.25C1.75272 21.1248 1.27581 20.9272 0.924175 20.5756C0.572544 20.224 0.375 19.7471 0.375 19.2498V3.49979C0.375 3.00251 0.572544 2.5256 0.924175 2.17397C1.27581 1.82234 1.75272 1.62479 2.25 1.62479H5.48719C5.9412 1.15069 6.48649 0.77339 7.09021 0.515635C7.69392 0.25788 8.34356 0.125 9 0.125C9.65644 0.125 10.3061 0.25788 10.9098 0.515635C11.5135 0.77339 12.0588 1.15069 12.5128 1.62479H15.75C16.2473 1.62479 16.7242 1.82234 17.0758 2.17397C17.4275 2.5256 17.625 3.00251 17.625 3.49979ZM6.40219 4.62479H11.5978C11.5072 4.00042 11.1948 3.42956 10.7178 3.0167C10.2407 2.60384 9.63091 2.37661 9 2.37661C8.36909 2.37661 7.75929 2.60384 7.28223 3.0167C6.80517 3.42956 6.49275 4.00042 6.40219 4.62479ZM15.375 3.87479H13.7428C13.8303 4.2434 13.8747 4.62094 13.875 4.99979V5.74979C13.875 6.04816 13.7565 6.33431 13.5455 6.54529C13.3345 6.75627 13.0484 6.87479 12.75 6.87479H5.25C4.95163 6.87479 4.66548 6.75627 4.4545 6.54529C4.24353 6.33431 4.125 6.04816 4.125 5.74979V4.99979C4.12531 4.62094 4.16967 4.2434 4.25719 3.87479H2.625V18.8748H15.375V3.87479Z" fill="white"/>
</svg>