<svg width="19" height="20" viewBox="0 0 23 20" fill="none" xmlns="http://www.w3.org/2000/svg">
<path d="M8.625 6.625C8.625 6.32663 8.74353 6.04048 8.9545 5.8295C9.16548 5.61853 9.45163 5.5 9.75 5.5H15.375C15.6734 5.5 15.9595 5.61853 16.1705 5.8295C16.3815 6.04048 16.5 6.32663 16.5 6.625C16.5 6.92337 16.3815 7.20952 16.1705 7.4205C15.9595 7.63147 15.6734 7.75 15.375 7.75H9.75C9.45163 7.75 9.16548 7.63147 8.9545 7.4205C8.74353 7.20952 8.625 6.92337 8.625 6.625ZM9.75 11.5H15.375C15.6734 11.5 15.9595 11.3815 16.1705 11.1705C16.3815 10.9595 16.5 10.6734 16.5 10.375C16.5 10.0766 16.3815 9.79048 16.1705 9.5795C15.9595 9.36853 15.6734 9.25 15.375 9.25H9.75C9.45163 9.25 9.16548 9.36853 8.9545 9.5795C8.74353 9.79048 8.625 10.0766 8.625 10.375C8.625 10.6734 8.74353 10.9595 8.9545 11.1705C9.16548 11.3815 9.45163 11.5 9.75 11.5ZM22.125 16C22.125 16.8951 21.7694 17.7536 21.1365 18.3865C20.5036 19.0194 19.6451 19.375 18.75 19.375H8.25C7.35489 19.375 6.49645 19.0194 5.86351 18.3865C5.23058 17.7536 4.875 16.8951 4.875 16V4C4.875 3.70163 4.75647 3.41548 4.5455 3.2045C4.33452 2.99353 4.04837 2.875 3.75 2.875C3.45163 2.875 3.16548 2.99353 2.9545 3.2045C2.74353 3.41548 2.625 3.70163 2.625 4C2.625 4.34969 2.93906 4.61031 2.94187 4.61313L2.925 4.6C3.04881 4.6864 3.15396 4.79683 3.23419 4.92471C3.31442 5.0526 3.36809 5.19533 3.39201 5.34439C3.41592 5.49346 3.40958 5.64581 3.37338 5.79238C3.33717 5.93894 3.27184 6.07672 3.18126 6.19751C3.09069 6.31829 2.97673 6.41961 2.84618 6.49543C2.71563 6.57124 2.57115 6.62001 2.42136 6.63882C2.27156 6.65762 2.11951 6.64609 1.97427 6.6049C1.82903 6.56371 1.69356 6.49371 1.57594 6.39906C1.45219 6.30812 0.375 5.45781 0.375 4C0.375 3.10489 0.730579 2.24645 1.36351 1.61351C1.99645 0.980579 2.85489 0.625 3.75 0.625H16.5C17.3951 0.625 18.2536 0.980579 18.8865 1.61351C19.5194 2.24645 19.875 3.10489 19.875 4V13.375H20.25C20.4934 13.375 20.7303 13.4539 20.925 13.6C21.0478 13.6919 22.125 14.5422 22.125 16ZM8.68313 14.1437C8.75786 13.9199 8.90109 13.7252 9.09255 13.5873C9.28401 13.4493 9.51401 13.375 9.75 13.375H17.625V4C17.625 3.70163 17.5065 3.41548 17.2955 3.2045C17.0845 2.99353 16.7984 2.875 16.5 2.875H6.93188C7.05987 3.23626 7.12519 3.61674 7.125 4V16C7.125 16.2984 7.24353 16.5845 7.4545 16.7955C7.66548 17.0065 7.95163 17.125 8.25 17.125C8.54837 17.125 8.83452 17.0065 9.0455 16.7955C9.25647 16.5845 9.375 16.2984 9.375 16C9.375 15.6644 9.07781 15.4019 9.075 15.4C8.88608 15.2582 8.74656 15.0606 8.67622 14.8351C8.60589 14.6097 8.6083 14.3678 8.68313 14.1437ZM19.875 16C19.8717 15.8667 19.8314 15.7368 19.7587 15.625H11.6025C11.6189 15.7493 11.627 15.8746 11.6269 16C11.6271 16.3833 11.5618 16.7638 11.4338 17.125H18.75C19.0484 17.125 19.3345 17.0065 19.5455 16.7955C19.7565 16.5845 19.875 16.2984 19.875 16Z" fill="#4E4B66"/>
</svg>